<svg xmlns="http://www.w3.org/2000/svg" xmlns:xlink="http://www.w3.org/1999/xlink" fill="none" version="1.1" width="1280" height="375" viewBox="0 0 1280 375"><g style="mix-blend-mode:passthrough"><g style="mix-blend-mode:passthrough"><g style="mix-blend-mode:passthrough"><rect x="0" y="0" width="120" height="65" rx="5" fill="#FFFFFF" fill-opacity="1" style="mix-blend-mode:passthrough"/><rect x="1.5" y="1.5" width="117" height="62" rx="3.5" fill-opacity="0" stroke-opacity="1" stroke="#EAEAFF" fill="none" stroke-width="3"/></g><g style="mix-blend-mode:passthrough"><path d="M54.5039,23.85352Q56.0801,28.24805,59.5137,30.5918L58.6875,32.0156Q55.3711,29.80078,53.8359,25.93945Q53.1328,27.65625,52.1074,29.09766Q51.08203,30.53906,49.44727,32.0156L48.49805,30.65039Q50.16797,29.20898,51.26367,27.5918Q52.3594,25.97461,53.1152,23.85352L54.5039,23.85352ZM49.16016,34.4062Q49.16016,35.7598,48.46289,36.4336Q47.76562,37.1074,46.62305,37.1426Q46.11914,37.1426,45.74414,37.0547L45.36914,35.4727Q45.84961,35.5957,46.44141,35.5957Q47.08008,35.5957,47.33789,35.2793Q47.5957,34.9629,47.5957,34.0781Q47.5957,32.5957,45.98438,30.74414L47.47852,26.29688L45.00586,26.29688L45.00586,40.5L43.45898,40.5L43.45898,24.75L49.125,24.75L49.125,26.39062L47.70117,30.49805Q49.16016,32.4902,49.16016,34.4062ZM50.91211,30.87305L52.5,30.87305L52.5,33.1758Q52.5,34.9922,52.2598,36.1816Q52.0254,37.3711,51.44531,38.3906Q50.86523,39.4043,49.70508,40.7344L48.31641,39.5332Q49.38867,38.4902,49.93359,37.6406Q50.48438,36.791,50.69531,35.7773Q50.91211,34.7637,50.91211,33.1992L50.91211,30.87305ZM56.6367,40.4473L55.0664,40.4473L55.0664,30.89062L56.6367,30.89062L56.6367,40.4473ZM68.0625,36.791Q65.7246,37.1016,63.761700000000005,37.377L63.761700000000005,40.5L62.25,40.5L62.25,37.5762L60.8086,37.7754L60.7559,36.1172L62.25,35.9531L62.25,25.11328Q63.5625,25.01953,65.1621,24.73828Q66.7617,24.45117,67.8457,24.12305L68.3555,25.72266Q67.5527,25.92773,66.2051,26.13867Q64.8633,26.34375,63.761700000000005,26.4668L63.761700000000005,28.35352L67.5234,28.35352L67.5234,29.88281L63.761700000000005,29.88281L63.761700000000005,31.8457L67.5234,31.8457L67.5234,33.375L63.761700000000005,33.375L63.761700000000005,35.748Q65.2383,35.5664,68.0625,35.168L68.0625,36.791ZM67.8516,29.99414Q68.5547,29.41992,68.8887,28.99219Q69.2227,28.55859,69.3457,28.06055Q69.4746,27.55664,69.4746,26.73047L69.4746,24.73828L75.12299999999999,24.73828L75.12299999999999,28.01367Q75.12299999999999,28.51758,75.27539999999999,28.66992Q75.4336,28.82227,75.91409999999999,28.85742L76.582,28.875L77.2324,28.85742L76.9453,30.36914L76.1543,30.38672L75.3574,30.36914Q74.4434,30.33398,74.0273,29.97656Q73.6113,29.61328,73.6113,28.7168L73.6113,26.25L70.9863,26.25L70.9863,27.23438Q70.9863,28.38281,70.5586,29.20312Q70.1367,30.017580000000002,69.0059,30.98438L67.8516,29.99414ZM76.6348,40.5527Q74.0449,39.4863,72.2637,37.9395Q70.4531,39.4043,67.5586,40.6113L66.7324,39Q69.3926,37.9746,71.0918,36.7734Q69.6328,35.0977,68.7012,32.7832L68.25,32.7832L68.25,31.33594L76.0957,31.33594L76.0957,32.8359Q75.0527,35.2969,73.4121,36.9199Q74.959,38.1094,77.41409999999999,38.9297L76.6348,40.5527ZM70.4121,32.7832Q71.127,34.5879,72.2461,35.8418Q73.5762,34.5469,74.3848,32.7832L70.4121,32.7832Z" fill="#000000" fill-opacity="1" style="mix-blend-mode:passthrough"/></g></g><g style="mix-blend-mode:passthrough"><g style="mix-blend-mode:passthrough"><rect x="0" y="85" width="120" height="290" rx="5" fill="#FFFFFF" fill-opacity="1" style="mix-blend-mode:passthrough"/><rect x="1.5" y="86.5" width="117" height="287" rx="3.5" fill-opacity="0" stroke-opacity="1" stroke="#EAEAFF" fill="none" stroke-width="3"/></g><g style="mix-blend-mode:passthrough"><path d="M30.58008,222.33984Q29.80664,224.57812,28.875,226.48242L28.875,238.5L27.22266,238.5L27.22266,229.44727Q26.35547,230.8184,25.44141,231.9668L24.650391,230.1855Q25.86914,228.72656,27.03516,226.43555Q28.20703,224.13867,28.94531,221.81836L30.58008,222.33984ZM39.0469,234.8672Q39.334,233.6895,39.5156,232.7578L40.957,233.4258Q40.7402,234.7793,40.3828,235.9629Q40.0547,237.13479999999998,39.4863,237.627Q38.9238,238.125,38.168,238.125Q37.4824,238.125,36.8613,237.709Q36.2402,237.2988,35.5371,236.3262Q34.043,234.1465,33.41602,228.94336L29.7832,229.28906L29.64258,227.66602L33.23438,227.32617Q33.12891,226.11914,33.08789,225.32812L32.89453,221.81836L34.623,221.81836Q34.623,222.17578,34.6934,223.86914Q34.7109,224.17383,34.7637,225.38086Q34.834,226.55273,34.8926,227.17969L40.8281,226.62305L40.957,228.26367L35.0684,228.80273Q35.3965,231.1934,35.9004,232.8516Q36.4043,234.5039,36.9609,235.3184Q37.3184,235.8223,37.5879,236.0039Q37.8633,236.1797,38.168,236.1797Q38.4551,236.1621,38.6484,235.9043Q38.8477,235.6406,39.0469,234.8672ZM38.6191,225.88477Q38.1328,225.38086,37.2598,224.58984Q36.3867,223.79883,35.8066,223.33008L36.7617,222.2168Q37.3594,222.68555,38.2852,223.45898Q39.2109,224.22656,39.6621,224.66016L38.6191,225.88477ZM54.9434,234.2695Q55.7168,234.8789,56.7598,235.3652Q57.8027,235.8516,59.2617,236.30270000000002L58.5762,237.88479999999998Q56.3848,237.0938,54.9961,236.1855Q53.6074,235.2773,52.6699,234.082Q51.738299999999995,232.8809,50.835899999999995,231.0469Q49.863299999999995,232.2539,48.7676,233.1504L48.7676,236.373L52.2012,235.2246L52.418,236.8066Q49.5938,237.5977,47.8711,238.2656Q47.584,238.3711,47.0801,238.5879L46.4824,237.3281Q47.150400000000005,236.94729999999998,47.150400000000005,236.3203L47.150400000000005,234.3223Q45.709,235.2246,43.459,236.23239999999998L42.7207,234.6445Q44.8594,233.8008,46.3418,232.9219Q47.8301,232.0371,48.9668,230.9004L43.043,230.9004L43.043,229.5L50.1738,229.5L50.1738,227.90625L44.6074,227.90625L44.6074,226.5L50.1738,226.5L50.1738,225L43.7461,225L43.7461,223.55859L50.1738,223.55859L50.1738,221.97656L51.8438,221.97656L51.8438,223.55859L58.2539,223.55859L58.2539,225L51.8438,225L51.8438,226.5L57.3926,226.5L57.3926,227.90625L51.8438,227.90625L51.8438,229.5L58.957,229.5L58.957,230.9004L52.3652,230.9004Q53.085899999999995,232.2891,53.789100000000005,233.1328Q55.6289,232.125,56.9062,231.1348L57.8438,232.4707Q56.4609,233.4023,54.9434,234.2695ZM63.9902,226.31836Q63.5977,225.72656,62.7773,224.70117Q61.957,223.67578,61.418,223.13086L62.7305,222.09961Q63.2695,222.68555,64.06049999999999,223.65234Q64.8574,224.61328,65.3086,225.22266L63.9902,226.31836ZM75.6035,225.97852L75.4922,229.5L77.31450000000001,229.5L77.31450000000001,230.9707L65.61330000000001,230.9707L65.61330000000001,229.5L68.168,229.5L68.5488,227.36719L66.49799999999999,227.36719L66.49799999999999,225.97852L68.80080000000001,225.97852L69.12299999999999,224.24414L66.1172,224.24414L66.1172,222.75L76.6289,222.75L76.6289,224.24414L70.7812,224.24414L70.47659999999999,225.97852L75.6035,225.97852ZM73.875,227.36719L70.2012,227.36719L69.8438,229.5L73.8047,229.5L73.875,227.36719ZM64.2422,234.832L65.8477,233.4434L66.49799999999999,234.9375Q65.0977,236.11520000000002,64.10159999999999,237.0703L63.2344,237.8438L62.1211,236.5488Q62.4258,236.23239999999998,62.5254,236.00979999999998Q62.625,235.7812,62.625,235.4297L62.625,229.125L60.6445,229.125L60.6445,227.56055L64.2422,227.56055L64.2422,234.832ZM68.584,238.5L66.96090000000001,238.5L66.96090000000001,232.166L76.03710000000001,232.166L76.03710000000001,238.5L74.3438,238.5L74.3438,237.375L68.584,237.375L68.584,238.5ZM74.3438,235.916L74.3438,233.625L68.584,233.625L68.584,235.916L74.3438,235.916ZM95.0449,223.85742L95.0449,225.42773L78.75,225.42773L78.75,223.85742L86.3672,223.85742Q85.9863,222.99609,85.5586,222.1875L87.3926,221.80664Q87.9375,222.97852,88.2422,223.85742L95.0449,223.85742ZM80.80080000000001,226.875L93.0117,226.875L93.0117,228.31641L80.80080000000001,228.31641L80.80080000000001,226.875ZM93.0117,230.9414L80.80080000000001,230.9414L80.80080000000001,229.5L93.0117,229.5L93.0117,230.9414ZM82.22460000000001,238.5L80.584,238.5L80.584,232.1309L93.2109,232.1309L93.2109,238.48239999999998L91.5527,238.48239999999998L91.5527,237.375L82.22460000000001,237.375L82.22460000000001,238.5ZM91.5527,235.8457L91.5527,233.625L82.22460000000001,233.625L82.22460000000001,235.8457L91.5527,235.8457Z" fill="#3D3D3D" fill-opacity="1"/></g></g><g style="mix-blend-mode:passthrough"><g style="mix-blend-mode:passthrough"><rect x="140" y="0" width="270" height="65" rx="5" fill="#696CFD" fill-opacity="1"/></g><g style="mix-blend-mode:passthrough"><path d="M247.2441,25.125L247.2441,26.83594L244.3613,26.83594L244.8125,27.66797L243.0195,28.21289Q242.8027,27.82031,242.3105,26.83594L241.3965,26.83594Q240.7988,27.83789,240.2891,28.5L245.9844,28.5L245.9844,33.2461L240.125,33.2461L240.125,34.2715L246.9043,34.2715Q246.7461,35.8301,246.4766,37.4062Q246.2715,38.4727,245.7383,38.935500000000005Q245.2051,39.3926,244.1152,39.3926Q242.6621,39.3574,241.6484,39.2461L241.291,37.3828Q242.7266,37.5352,243.6699,37.5352Q243.998,37.5352,244.1504,37.4062Q244.3086,37.2773,244.4141,36.9082Q244.5254,36.4922,244.5957,36L240.125,36L240.125,40.5L237.96875,40.5L237.96875,36.8379Q236.7793,37.8867,235.30859,38.7305Q233.84375,39.574200000000005,231.86328,40.4062L230.75,38.3848Q232.53125,37.8047,233.83203,37.2422Q235.13867,36.6797,236.16992,36L231.74023,36L232.46094,31.5L237.96875,31.5L237.96875,30.246090000000002L232.80078,30.246090000000002L232.80078,28.64648L232.34961,29.16797L230.603516,27.99023Q231.52344,27.03516,232.31445,25.86328Q233.10547,24.69141,233.55664,23.66602L235.73633,24.0293Q235.51953,24.55078,235.21484,25.125L238.95898,25.125L238.95898,26.83594L236.87305,26.83594Q237.10742,27.22852,237.35938,27.75L235.53711,28.29492L234.85156,26.83594L234.20703,26.83594Q233.64453,27.65039,232.92969,28.5L240.0898,28.5L238.36719,27.68555Q239.5918,26.22656,240.6172,23.70117L242.7266,24.08203L242.2754,25.125L247.2441,25.125ZM240.125,31.5L243.875,31.5L243.875,30.246090000000002L240.125,30.246090000000002L240.125,31.5ZM234.14844,34.2715L237.96875,34.2715L237.96875,33.2461L234.29492,33.2461L234.14844,34.2715ZM248.75,30.375L265.2383,30.375L265.2383,32.8535L248.75,32.8535L248.75,30.375ZM272.8848,24.51562Q272.2051,26.53125,271.25,28.5293L271.25,40.5L269.1055,40.5L269.1055,32.3086Q268.4785,33.2637,267.6113,34.3828L266.5859,32.0918Q267.7578,30.72656,268.918,28.42969Q270.0781,26.13281,270.7637,23.88281L272.8848,24.51562ZM283.0859,35.6191Q282.8691,37.0254,282.4883,38.1973Q281.8438,40.4473,280.09770000000003,40.4473Q279.3594,40.4473,278.6914,40.0137Q278.0234,39.5801,277.2676,38.537099999999995Q275.7559,36.3574,275.1289,31.37695L272.03520000000003,31.66406L271.8594,29.55469L274.9121,29.26758Q274.8594,28.63477,274.7832,27.50391L274.748,26.96484Q274.6426,25.08984,274.6074,24.01172L276.7988,24.01172L276.9453,27.55664L277.0508,29.06836L282.7578,28.5293L282.9219,30.673830000000002L277.28520000000003,31.17773Q277.6133,33.4043,278.0996,34.9629Q278.5859,36.5215,279.1074,37.2422Q279.4121,37.6523,279.6289,37.8164Q279.8457,37.9805,280.0625,37.9805Q280.291,37.9805,280.4434,37.7402Q280.6016,37.4941,280.77729999999997,36.791Q281.0293,35.9473,281.2285,34.7578L283.0859,35.6191ZM280.47270000000003,28.33008Q279.9863,27.80859,279.0781,26.96484Q278.1699,26.11523,277.6133,25.70508L278.8379,24.24609Q279.4121,24.65625,280.373,25.4707Q281.33979999999997,26.2793,281.8262,26.73047L280.47270000000003,28.33008ZM287.7559,28.33594Q287.3809,27.73828,286.5371,26.68945Q285.6992,25.63477,285.1543,25.04297L286.8242,23.72461Q287.3809,24.33398,288.1953,25.3125Q289.0098,26.28516,289.4551,26.89453L287.7559,28.33594ZM299.8848,27.84375L299.77930000000003,31.14844L301.4375,31.14844L301.4375,33L289.625,33L289.625,31.14844L292.0742,31.14844L292.3789,29.625L290.4688,29.625L290.4688,27.84375L292.7012,27.84375L292.9531,26.30273L290.1113,26.30273L290.1113,24.375L300.8047,24.375L300.8047,26.30273L295.09770000000003,26.30273L294.84569999999997,27.84375L299.8848,27.84375ZM288.3359,36.3398L289.58979999999997,35.209L290.3809,37.2129Q289.4141,37.9922,288.0312,39.3047L287.22270000000003,40.0137L285.7988,38.4727Q286.0859,38.1797,286.168,37.9277Q286.25,37.6699,286.25,37.2246L286.25,31.347659999999998L284.59770000000003,31.347659999999998L284.59770000000003,29.37305L288.3359,29.37305L288.3359,36.3398ZM297.6348,29.625L294.5234,29.625L294.2129,31.14844L297.582,31.14844L297.6348,29.625ZM292.8828,40.5L290.7969,40.5L290.7969,34.166L300.377,34.166L300.377,40.5L298.1973,40.5L298.1973,39.75L292.8828,39.75L292.8828,40.5ZM298.1973,37.9336L298.1973,36L292.8828,36L292.8828,37.9336L298.1973,37.9336ZM319.0039,25.75195L319.0039,27.75L302.75,27.75L302.75,25.75195L309.8984,25.75195Q309.5703,24.83203,309.3359,24.24023L311.8379,23.87695Q312.1426,24.72656,312.4531,25.75195L319.0039,25.75195ZM304.5312,28.61133L317.2578,28.61133L317.2578,30.375L304.5312,30.375L304.5312,28.61133ZM317.2578,33L304.5312,33L304.5312,31.236330000000002L317.2578,31.236330000000002L317.2578,33ZM306.459,40.5L304.3496,40.5L304.3496,34.0898L317.40430000000003,34.0898L317.40430000000003,40.4824L315.27729999999997,40.4824L315.27729999999997,39.75L306.459,39.75L306.459,40.5ZM315.27729999999997,37.7871L315.27729999999997,36L306.459,36L306.459,37.7871L315.27729999999997,37.7871Z" fill="#FFFFFF" fill-opacity="1" style="mix-blend-mode:passthrough"/></g></g><g style="mix-blend-mode:passthrough"><g style="mix-blend-mode:passthrough"><rect x="140" y="85" width="270" height="290" rx="5" fill="#D4D5FE" fill-opacity="1"/></g><g style="mix-blend-mode:passthrough"><path d="M245.88477,232.0137Q245.21094,231.2051,244.06836,229.99219L244.06836,238.125L242.67969,238.125L242.67969,230.1211Q241.70703,232.3535,240.37695,234.1289L239.65625,232.834Q240.46484,231.7383,241.32031,230.0391Q242.17578,228.33984,242.66211,226.76367L240.125,226.76367L240.125,225.375L242.67969,225.375L242.67969,221.6543L244.06836,221.6543L244.06836,225.375L246.47656,225.375L246.47656,226.76367L244.06836,226.76367L244.06836,228.31055Q244.56055,228.75586,245.41602,229.62305Q246.27734,230.4902,246.76953,231.041L245.88477,232.0137ZM256.3262,232.623Q256.3262,233.2969,256.2969,234.3223Q256.2676,235.3477,256.2324,236.0215Q256.1973,236.7363,256.0391,237.0996Q255.8809,237.4629,255.5234,237.6035Q255.166,237.75,254.4805,237.75L253.6543,237.75Q252.8105,237.75,252.4648,237.35739999999998Q252.125,236.9648,252.125,235.9277L252.125,224.61914L248.75,224.61914L248.75,229.11914Q248.75,231.5684,248.55078,233.0859Q248.35742,234.5977,247.87109,235.7578Q247.39062,236.9121,246.42383,238.17770000000002L245.14648,237.5508Q246.06055,236.2969,246.50586,235.2891Q246.95703,234.2754,247.13281,232.8984Q247.30859,231.5215,247.30859,229.16016L247.30859,223.125L253.5488,223.125L253.5488,235.5059Q253.5488,236.0215,253.6543,236.1855Q253.7656,236.3496,254.1172,236.3496L254.2988,236.3496Q254.6504,236.3496,254.7676,236.1797Q254.8848,236.00979999999998,254.9023,235.4238Q254.9199,234.8438,254.9434,233.9121Q254.9727,232.9746,254.9727,232.3711L256.3262,232.623ZM259.0098,222.70312L264.9629,222.70312L264.9629,227.25L259.0098,227.25L259.0098,222.70312ZM266.6738,222.70312L272.668,222.70312L272.668,227.25L266.6738,227.25L266.6738,222.70312ZM260.3047,226.06641L263.6855,226.06641L263.6855,223.875L260.3047,223.875L260.3047,226.06641ZM267.9512,226.06641L271.4082,226.06641L271.4082,223.875L267.9512,223.875L267.9512,226.06641ZM273.7871,233.1328Q273.0488,233.0039,272.5625,232.8984L272.5625,238.125L271.28520000000003,238.125L271.28520000000003,237.375L267.9336,237.375L267.9336,238.125L266.6562,238.125L266.6562,232.5L271.0684,232.5Q268.168,231.6211,266.4043,229.99219L265.1797,229.99219Q264.5352,230.7363,263.4277,231.3281Q262.3203,231.9199,260.4277,232.5L264.9629,232.5L264.9629,238.125L263.6855,238.125L263.6855,237.375L260.4453,237.375L260.4453,238.125L259.1504,238.125L259.1504,232.8809L257.9434,233.2031L257.5508,231.9199Q259.7246,231.4746,261.0723,231.0176Q262.4258,230.5547,263.2168,229.99219L258.125,229.99219L258.125,228.75L264.3711,228.75Q264.6582,228.29883,264.9102,227.58984L266.4219,227.76562Q266.1875,228.32812,265.9707,228.75L269.6797,228.75Q269.4453,228.41602,268.9941,227.84766L269.9492,227.36133Q270.5469,228.07031,271.0508,228.75L273.5703,228.75L273.5703,229.99219L268.3145,229.99219Q269.2695,230.6836,270.6816,231.1465Q272.0938,231.6035,274.1797,231.8848L273.7871,233.1328ZM263.6855,236.2383L263.6855,233.6895L260.4453,233.6895L260.4453,236.2383L263.6855,236.2383ZM267.9336,233.6895L267.9336,236.2383L271.28520000000003,236.2383L271.28520000000003,233.6895L267.9336,233.6895ZM279.4004,226.20703Q278.97270000000003,225.5918,278.1172,224.56641Q277.2617,223.53516,276.72270000000003,222.97852L277.8535,222.09375Q278.4219,222.69141,279.2598,223.67578Q280.1035,224.66016,280.5547,225.25195L279.4004,226.20703ZM290.8438,225.99023L290.7383,229.45898L292.625,229.45898L292.625,230.7539L280.9824,230.7539L280.9824,229.45898L283.58979999999997,229.45898L284.0059,227.25L281.8848,227.25L281.8848,225.99023L284.22270000000003,225.99023L284.5801,224.02148L281.5039,224.02148L281.5039,222.74414L291.9219,222.74414L291.9219,224.02148L286.0215,224.02148L285.6582,225.99023L290.8438,225.99023ZM289.3672,227.25L285.4414,227.25L285.0312,229.45898L289.2793,229.45898L289.3672,227.25ZM279.3828,235.166L281.33979999999997,233.5312L281.9375,234.9023Q280.6484,235.8691,279.3594,236.9414L278.41020000000003,237.7148L277.4609,236.7832Q277.7832,236.4316,277.8887,236.2207Q278,236.0039,278,235.6699L278,228.95508L275.8379,228.95508L275.8379,227.625L279.3828,227.625L279.3828,235.166ZM283.8242,238.125L282.4414,238.125L282.4414,232.125L291.2422,232.125L291.2422,238.125L289.8008,238.125L289.8008,237.375L283.8242,237.375L283.8242,238.125ZM289.8008,236.0977L289.8008,233.4199L283.8242,233.4199L283.8242,236.0977L289.8008,236.0977ZM310.0801,224.00977L310.0801,225.375L293.75,225.375L293.75,224.00977L301.6191,224.00977Q301.1152,223.03711,300.6816,222.26367L302.1758,221.86523Q302.8613,223.27148,303.166,224.00977L310.0801,224.00977ZM295.9473,226.75781L307.9004,226.75781L307.9004,228.05273L295.9473,228.05273L295.9473,226.75781ZM307.9004,230.7773L295.9473,230.7773L295.9473,229.5L307.9004,229.5L307.9004,230.7773ZM297.1191,238.125L295.7129,238.125L295.7129,232.3125L308.1172,232.3125L308.1172,238.10739999999998L306.6934,238.10739999999998L306.6934,237.1875L297.1191,237.1875L297.1191,238.125ZM306.6934,235.875L306.6934,233.625L297.1191,233.625L297.1191,235.875L306.6934,235.875Z" fill="#393939" fill-opacity="1" style="mix-blend-mode:passthrough"/></g></g><g style="mix-blend-mode:passthrough"><g style="mix-blend-mode:passthrough"><rect x="430" y="0" width="270" height="65" rx="5" fill="#696CFD" fill-opacity="1"/></g><g style="mix-blend-mode:passthrough"><path d="M537.2441,25.125L537.2441,26.83594L534.3613,26.83594L534.8125,27.66797L533.0195,28.21289Q532.8027,27.82031,532.3105,26.83594L531.3965,26.83594Q530.7988,27.83789,530.2891,28.5L535.9844,28.5L535.9844,33.2461L530.125,33.2461L530.125,34.2715L536.9043,34.2715Q536.7461,35.8301,536.4766,37.4062Q536.2715,38.4727,535.7383,38.935500000000005Q535.2051,39.3926,534.1152,39.3926Q532.6621,39.3574,531.6484,39.2461L531.291,37.3828Q532.7266,37.5352,533.6699,37.5352Q533.998,37.5352,534.1504,37.4062Q534.3086,37.2773,534.4141,36.9082Q534.5254,36.4922,534.5957,36L530.125,36L530.125,40.5L527.96875,40.5L527.96875,36.8379Q526.7793,37.8867,525.30859,38.7305Q523.84375,39.574200000000005,521.86328,40.4062L520.75,38.3848Q522.53125,37.8047,523.83203,37.2422Q525.13867,36.6797,526.16992,36L521.74023,36L522.46094,31.5L527.96875,31.5L527.96875,30.246090000000002L522.80078,30.246090000000002L522.80078,28.64648L522.34961,29.16797L520.603516,27.99023Q521.52344,27.03516,522.31445,25.86328Q523.10547,24.69141,523.55664,23.66602L525.73633,24.0293Q525.51953,24.55078,525.21484,25.125L528.95898,25.125L528.95898,26.83594L526.87305,26.83594Q527.10742,27.22852,527.35938,27.75L525.53711,28.29492L524.85156,26.83594L524.20703,26.83594Q523.64453,27.65039,522.92969,28.5L530.0898,28.5L528.36719,27.68555Q529.5918,26.22656,530.6172,23.70117L532.7266,24.08203L532.2754,25.125L537.2441,25.125ZM530.125,31.5L533.875,31.5L533.875,30.246090000000002L530.125,30.246090000000002L530.125,31.5ZM524.14844,34.2715L527.96875,34.2715L527.96875,33.2461L524.29492,33.2461L524.14844,34.2715ZM540.332,25.75195L553.3809,25.75195L553.3809,28.125L540.332,28.125L540.332,25.75195ZM538.8379,36.7148L554.875,36.7148L554.875,39.1289L538.8379,39.1289L538.8379,36.7148ZM562.8848,24.51562Q562.2051,26.53125,561.25,28.5293L561.25,40.5L559.1055,40.5L559.1055,32.3086Q558.4784999999999,33.2637,557.6113,34.3828L556.5859,32.0918Q557.7578,30.72656,558.918,28.42969Q560.0781,26.13281,560.7637,23.88281L562.8848,24.51562ZM573.0859,35.6191Q572.8691,37.0254,572.4883,38.1973Q571.8438,40.4473,570.0977,40.4473Q569.3594,40.4473,568.6914,40.0137Q568.0234,39.5801,567.2676,38.537099999999995Q565.7559,36.3574,565.1289,31.37695L562.0352,31.66406L561.8594,29.55469L564.9121,29.26758Q564.8594,28.63477,564.7832,27.50391L564.748,26.96484Q564.6426,25.08984,564.6074,24.01172L566.7988,24.01172L566.9453,27.55664L567.0508,29.06836L572.7578,28.5293L572.9219,30.673830000000002L567.2852,31.17773Q567.6133,33.4043,568.0996,34.9629Q568.5859,36.5215,569.1074,37.2422Q569.4121,37.6523,569.6289,37.8164Q569.8457,37.9805,570.0625,37.9805Q570.2909999999999,37.9805,570.4434,37.7402Q570.6016,37.4941,570.7773,36.791Q571.0293,35.9473,571.2284999999999,34.7578L573.0859,35.6191ZM570.4727,28.33008Q569.9863,27.80859,569.0781,26.96484Q568.1699,26.11523,567.6133,25.70508L568.8379,24.24609Q569.4121,24.65625,570.373,25.4707Q571.3398,26.2793,571.8262,26.73047L570.4727,28.33008ZM577.7559,28.33594Q577.3809,27.73828,576.5371,26.68945Q575.6992,25.63477,575.1543,25.04297L576.8242,23.72461Q577.3809,24.33398,578.1953,25.3125Q579.0098,26.28516,579.4551,26.89453L577.7559,28.33594ZM589.8848,27.84375L589.7793,31.14844L591.4375,31.14844L591.4375,33L579.625,33L579.625,31.14844L582.0742,31.14844L582.3789,29.625L580.4688,29.625L580.4688,27.84375L582.7012,27.84375L582.9531,26.30273L580.1113,26.30273L580.1113,24.375L590.8047,24.375L590.8047,26.30273L585.0977,26.30273L584.8457,27.84375L589.8848,27.84375ZM578.3359,36.3398L579.5898,35.209L580.3809,37.2129Q579.4141,37.9922,578.0312,39.3047L577.2227,40.0137L575.7988,38.4727Q576.0859,38.1797,576.168,37.9277Q576.25,37.6699,576.25,37.2246L576.25,31.347659999999998L574.5977,31.347659999999998L574.5977,29.37305L578.3359,29.37305L578.3359,36.3398ZM587.6348,29.625L584.5234,29.625L584.2129,31.14844L587.582,31.14844L587.6348,29.625ZM582.8828,40.5L580.7969,40.5L580.7969,34.166L590.377,34.166L590.377,40.5L588.1973,40.5L588.1973,39.75L582.8828,39.75L582.8828,40.5ZM588.1973,37.9336L588.1973,36L582.8828,36L582.8828,37.9336L588.1973,37.9336ZM609.0039,25.75195L609.0039,27.75L592.75,27.75L592.75,25.75195L599.8984,25.75195Q599.5703,24.83203,599.3359,24.24023L601.8379,23.87695Q602.1426,24.72656,602.4531,25.75195L609.0039,25.75195ZM594.5312,28.61133L607.2578,28.61133L607.2578,30.375L594.5312,30.375L594.5312,28.61133ZM607.2578,33L594.5312,33L594.5312,31.236330000000002L607.2578,31.236330000000002L607.2578,33ZM596.4590000000001,40.5L594.3496,40.5L594.3496,34.0898L607.4043,34.0898L607.4043,40.4824L605.2773,40.4824L605.2773,39.75L596.4590000000001,39.75L596.4590000000001,40.5ZM605.2773,37.7871L605.2773,36L596.4590000000001,36L596.4590000000001,37.7871L605.2773,37.7871Z" fill="#FFFFFF" fill-opacity="1" style="mix-blend-mode:passthrough"/></g></g><g style="mix-blend-mode:passthrough"><g style="mix-blend-mode:passthrough"><rect x="430" y="85" width="270" height="290" rx="5" fill="#D4D5FE" fill-opacity="1"/></g><g style="mix-blend-mode:passthrough"><path d="M531.55469,221.98242Q532.27539,222.43359,533.35352,223.20703Q534.43164,223.98047,535.0293,224.48438L534.17969,225.82031Q533.58789,225.27539,532.51562,224.47266Q531.44336,223.66406,530.72266,223.20703L531.55469,221.98242ZM535.75,222.75586L545.7168,222.75586L545.7168,224.25L537.26172,224.25L537.26172,236.25L545.9688,236.25L545.9688,237.709L535.75,237.709L535.75,222.75586ZM530.4707,226.07227Q531.23242,226.55859,532.38086,227.40234Q533.53516,228.24609,534.32617,228.91992L533.48242,230.1797Q532.79688,229.61719,531.64258,228.75Q530.49414,227.87695,529.626953,227.2793L530.4707,226.07227ZM530.18359,237.5273Q530.5293,236.8535,531.57812,234.5273Q532.63281,232.1953,532.90234,231.5098L534.29102,232.1309Q533.76953,233.2793,532.94922,235.1016Q532.12891,236.9238,531.57227,238.17770000000002L530.18359,237.5273ZM563.7168,229.49414L563.7168,236.7012Q563.7168,237.4805,563.4766,237.80270000000002Q563.2422,238.125,562.6094,238.125Q562.1699,238.125,561.7305,238.07229999999998L561.4784999999999,236.8945L562.0293,236.9883Q562.3457,237.0234,562.4453,236.918Q562.5449,236.8125,562.5449,236.5137L562.5449,234.375L561.2031,234.375L561.2031,237.3809L560.125,237.3809L560.125,234.375L558.9414,234.375L558.9414,237.3809L557.875,237.3809L557.875,234.375L556.457,234.375L556.457,238.2012L555.209,238.2012L555.209,229.98047Q554.9219,235.3066,553.2402,237.91989999999998L552.1387,237.24020000000002Q553.2344,235.5703,553.6562,233.3496Q554.084,231.123,554.084,227.55469L554.084,223.75781L558.5254,223.75781Q558.0918,222.63867,557.8574,222.09961L559.2285,221.8125Q559.498,222.5332,559.8848,223.75781L563.5,223.75781L563.5,228L555.2734,228Q555.2734,228.5332,555.2324,229.49414L563.7168,229.49414ZM549.2559,228.7793Q548.7168,228.87891,548.1426,229.01367L547.8555,227.67188Q548.2715,227.50195,548.4297,227.21484Q548.8633,226.44727,549.5547,224.88867Q550.2461,223.33008,550.6973,222.11719L551.9395,222.65625Q551.3828,224.01562,550.6973,225.51562Q550.0176,227.01562,549.6543,227.66016L551.4355,227.37305Q552.2441,225.73828,552.5723,225.05273L553.6328,225.59766Q553.0586,226.99219,552.0918,228.89062Q551.1309,230.7832,550.4102,231.8203L553.0938,230.9941L553.1289,232.3359L549.5137,233.2852L548.6465,233.5254L548.3418,232.1191Q548.6641,232.0488,548.8164,231.9375Q548.9688,231.8262,549.1152,231.5918Q549.4902,231.0059,550.8262,228.51562Q549.7656,228.66211,549.2559,228.7793ZM562.2227,226.78125L562.2227,225L555.2734,225L555.2734,226.78125L562.2227,226.78125ZM556.457,230.666L556.457,233.2031L557.875,233.2031L557.875,230.666L556.457,230.666ZM558.9414,230.666L558.9414,233.2031L560.125,233.2031L560.125,230.666L558.9414,230.666ZM561.2031,230.666L561.2031,233.2031L562.5449,233.2031L562.5449,230.666L561.2031,230.666ZM552.8242,235.541Q551.9922,235.7988,550.5156,236.23239999999998Q549.0449,236.666,548.1953,236.8945L547.9785,235.5586Q548.8457,235.3301,550.3398,234.9141Q551.834,234.4922,552.7305,234.2285L552.8242,235.541ZM569.4004,226.20703Q568.9727,225.5918,568.1172,224.56641Q567.2617,223.53516,566.7227,222.97852L567.8534999999999,222.09375Q568.4219,222.69141,569.2598,223.67578Q570.1034999999999,224.66016,570.5547,225.25195L569.4004,226.20703ZM580.8438,225.99023L580.7383,229.45898L582.625,229.45898L582.625,230.7539L570.9824,230.7539L570.9824,229.45898L573.5898,229.45898L574.0059,227.25L571.8848,227.25L571.8848,225.99023L574.2227,225.99023L574.5801,224.02148L571.5039,224.02148L571.5039,222.74414L581.9219,222.74414L581.9219,224.02148L576.0215000000001,224.02148L575.6582,225.99023L580.8438,225.99023ZM579.3672,227.25L575.4414,227.25L575.0312,229.45898L579.2793,229.45898L579.3672,227.25ZM569.3828,235.166L571.3398,233.5312L571.9375,234.9023Q570.6484,235.8691,569.3594,236.9414L568.4102,237.7148L567.4609,236.7832Q567.7832,236.4316,567.8887,236.2207Q568,236.0039,568,235.6699L568,228.95508L565.8379,228.95508L565.8379,227.625L569.3828,227.625L569.3828,235.166ZM573.8242,238.125L572.4414,238.125L572.4414,232.125L581.2422,232.125L581.2422,238.125L579.8008,238.125L579.8008,237.375L573.8242,237.375L573.8242,238.125ZM579.8008,236.0977L579.8008,233.4199L573.8242,233.4199L573.8242,236.0977L579.8008,236.0977ZM600.0801,224.00977L600.0801,225.375L583.75,225.375L583.75,224.00977L591.6191,224.00977Q591.1152,223.03711,590.6816,222.26367L592.1758,221.86523Q592.8613,223.27148,593.1659999999999,224.00977L600.0801,224.00977ZM585.9473,226.75781L597.9004,226.75781L597.9004,228.05273L585.9473,228.05273L585.9473,226.75781ZM597.9004,230.7773L585.9473,230.7773L585.9473,229.5L597.9004,229.5L597.9004,230.7773ZM587.1191,238.125L585.7129,238.125L585.7129,232.3125L598.1172,232.3125L598.1172,238.10739999999998L596.6934,238.10739999999998L596.6934,237.1875L587.1191,237.1875L587.1191,238.125ZM596.6934,235.875L596.6934,233.625L587.1191,233.625L587.1191,235.875L596.6934,235.875Z" fill="#393939" fill-opacity="1" style="mix-blend-mode:passthrough"/></g></g><g style="mix-blend-mode:passthrough"><g style="mix-blend-mode:passthrough"><rect x="720" y="0" width="560" height="65" rx="5" fill="#696CFD" fill-opacity="1"/></g><g style="mix-blend-mode:passthrough"><path d="M972.2441,25.125L972.2441,26.83594L969.3613,26.83594L969.8125,27.66797L968.0195,28.21289Q967.8027,27.82031,967.3105,26.83594L966.3965,26.83594Q965.7988,27.83789,965.2891,28.5L970.9844,28.5L970.9844,33.2461L965.125,33.2461L965.125,34.2715L971.9043,34.2715Q971.7461,35.8301,971.4766,37.4062Q971.2715,38.4727,970.7383,38.935500000000005Q970.2051,39.3926,969.1152,39.3926Q967.6621,39.3574,966.6484,39.2461L966.291,37.3828Q967.7266,37.5352,968.6699,37.5352Q968.998,37.5352,969.1504,37.4062Q969.3086,37.2773,969.4141,36.9082Q969.5254,36.4922,969.5957,36L965.125,36L965.125,40.5L962.96875,40.5L962.96875,36.8379Q961.7793,37.8867,960.30859,38.7305Q958.84375,39.574200000000005,956.86328,40.4062L955.75,38.3848Q957.53125,37.8047,958.83203,37.2422Q960.13867,36.6797,961.16992,36L956.74023,36L957.46094,31.5L962.96875,31.5L962.96875,30.246090000000002L957.80078,30.246090000000002L957.80078,28.64648L957.34961,29.16797L955.603516,27.99023Q956.52344,27.03516,957.31445,25.86328Q958.10547,24.69141,958.55664,23.66602L960.73633,24.0293Q960.51953,24.55078,960.21484,25.125L963.95898,25.125L963.95898,26.83594L961.87305,26.83594Q962.10742,27.22852,962.35938,27.75L960.53711,28.29492L959.85156,26.83594L959.20703,26.83594Q958.64453,27.65039,957.92969,28.5L965.0898,28.5L963.36719,27.68555Q964.5918,26.22656,965.6172,23.70117L967.7266,24.08203L967.2754,25.125L972.2441,25.125ZM965.125,31.5L968.875,31.5L968.875,30.246090000000002L965.125,30.246090000000002L965.125,31.5ZM959.14844,34.2715L962.96875,34.2715L962.96875,33.2461L959.29492,33.2461L959.14844,34.2715ZM975.1504,25.06641L989.0664,25.06641L989.0664,27.39258L975.1504,27.39258L975.1504,25.06641ZM975.9766,30.75L988.2578,30.75L988.2578,33L975.9766,33L975.9766,30.75ZM974.125,37.4062L990.1094,37.4062L990.1094,39.75L974.125,39.75L974.125,37.4062ZM997.8848,24.51562Q997.2051,26.53125,996.25,28.5293L996.25,40.5L994.1055,40.5L994.1055,32.3086Q993.4784999999999,33.2637,992.6113,34.3828L991.5859,32.0918Q992.7578,30.72656,993.918,28.42969Q995.0781,26.13281,995.7637,23.88281L997.8848,24.51562ZM1008.0859,35.6191Q1007.8691,37.0254,1007.4883,38.1973Q1006.8438,40.4473,1005.0977,40.4473Q1004.3594,40.4473,1003.6914,40.0137Q1003.0234,39.5801,1002.2676,38.537099999999995Q1000.7559,36.3574,1000.1289,31.37695L997.0352,31.66406L996.8594,29.55469L999.9121,29.26758Q999.8594,28.63477,999.7832,27.50391L999.748,26.96484Q999.6426,25.08984,999.6074,24.01172L1001.7988,24.01172L1001.9453,27.55664L1002.0508,29.06836L1007.7578,28.5293L1007.9219,30.673830000000002L1002.2852,31.17773Q1002.6133,33.4043,1003.0996,34.9629Q1003.5859,36.5215,1004.1074,37.2422Q1004.4121,37.6523,1004.6289,37.8164Q1004.8457,37.9805,1005.0625,37.9805Q1005.2909999999999,37.9805,1005.4434,37.7402Q1005.6016,37.4941,1005.7773,36.791Q1006.0293,35.9473,1006.2284999999999,34.7578L1008.0859,35.6191ZM1005.4727,28.33008Q1004.9863,27.80859,1004.0781,26.96484Q1003.1699,26.11523,1002.6133,25.70508L1003.8379,24.24609Q1004.4121,24.65625,1005.373,25.4707Q1006.3398,26.2793,1006.8262,26.73047L1005.4727,28.33008ZM1012.7559,28.33594Q1012.3809,27.73828,1011.5371,26.68945Q1010.6992,25.63477,1010.1543,25.04297L1011.8242,23.72461Q1012.3809,24.33398,1013.1953,25.3125Q1014.0098,26.28516,1014.4551,26.89453L1012.7559,28.33594ZM1024.8848,27.84375L1024.7793,31.14844L1026.4375,31.14844L1026.4375,33L1014.625,33L1014.625,31.14844L1017.0742,31.14844L1017.3789,29.625L1015.4688,29.625L1015.4688,27.84375L1017.7012,27.84375L1017.9531,26.30273L1015.1113,26.30273L1015.1113,24.375L1025.8047,24.375L1025.8047,26.30273L1020.0977,26.30273L1019.8457,27.84375L1024.8848,27.84375ZM1013.3359,36.3398L1014.5898,35.209L1015.3809,37.2129Q1014.4141,37.9922,1013.0312,39.3047L1012.2227,40.0137L1010.7988,38.4727Q1011.0859,38.1797,1011.168,37.9277Q1011.25,37.6699,1011.25,37.2246L1011.25,31.347659999999998L1009.5977,31.347659999999998L1009.5977,29.37305L1013.3359,29.37305L1013.3359,36.3398ZM1022.6348,29.625L1019.5234,29.625L1019.2129,31.14844L1022.582,31.14844L1022.6348,29.625ZM1017.8828,40.5L1015.7969,40.5L1015.7969,34.166L1025.377,34.166L1025.377,40.5L1023.1973,40.5L1023.1973,39.75L1017.8828,39.75L1017.8828,40.5ZM1023.1973,37.9336L1023.1973,36L1017.8828,36L1017.8828,37.9336L1023.1973,37.9336ZM1044.0039,25.75195L1044.0039,27.75L1027.75,27.75L1027.75,25.75195L1034.8984,25.75195Q1034.5703,24.83203,1034.3359,24.24023L1036.8379,23.87695Q1037.1426,24.72656,1037.4531,25.75195L1044.0039,25.75195ZM1029.5312,28.61133L1042.2578,28.61133L1042.2578,30.375L1029.5312,30.375L1029.5312,28.61133ZM1042.2578,33L1029.5312,33L1029.5312,31.236330000000002L1042.2578,31.236330000000002L1042.2578,33ZM1031.459,40.5L1029.3496,40.5L1029.3496,34.0898L1042.4043,34.0898L1042.4043,40.4824L1040.2773,40.4824L1040.2773,39.75L1031.459,39.75L1031.459,40.5ZM1040.2773,37.7871L1040.2773,36L1031.459,36L1031.459,37.7871L1040.2773,37.7871Z" fill="#FFFFFF" fill-opacity="1" style="mix-blend-mode:passthrough"/></g></g><g style="mix-blend-mode:passthrough"><g style="mix-blend-mode:passthrough"><rect x="720" y="85" width="270" height="135" rx="5" fill="#FDFA69" fill-opacity="1"/></g><g style="mix-blend-mode:passthrough"><path d="M817.875,146.08008L810.69141,146.08008Q810.3457,147.26367,809.93555,148.125L816.9199,148.125L816.9199,160.125L815.5371,160.125L815.5371,159.1523L804.48047,159.1523L804.48047,160.10739999999998L803.08008,160.10739999999998L803.08008,148.125L808.27734,148.125Q808.75195,147.21094,809.05664,146.08008L802.10742,146.08008L802.10742,144.75L817.875,144.75L817.875,146.08008ZM806.8418,149.45508L804.48047,149.45508L804.48047,157.875L806.8418,157.875L806.8418,149.45508ZM808.20703,151.40625L811.7754,151.40625L811.7754,149.45508L808.20703,149.45508L808.20703,151.40625ZM813.1582,157.875L815.5371,157.875L815.5371,149.45508L813.1582,149.45508L813.1582,157.875ZM808.20703,154.7402L811.7754,154.7402L811.7754,152.6836L808.20703,152.6836L808.20703,154.7402ZM811.7754,156L808.20703,156L808.20703,157.875L811.7754,157.875L811.7754,156ZM835.0488,146.40234L835.0488,158.0918Q835.0488,159.1992,834.5918,159.6621Q834.1406,160.125,833.0449,160.125Q831.9141,160.125,830.7656,160.0195L830.5078,158.5605Q831.668,158.7188,832.6992,158.7188Q833.2266,158.7188,833.4258,158.4492Q833.625,158.1738,833.625,157.541L833.625,147.75L822.3516,147.75L822.3516,160.14260000000002L820.875,160.14260000000002L820.875,146.40234L825.7266,146.40234Q826.3477,145.01367,826.7871,143.75391L828.4688,144.02344Q828.0645,145.13672,827.4902,146.40234L835.0488,146.40234ZM824.625,150L831.2637,150L831.2637,156.75L824.625,156.75L824.625,150ZM826.0664,155.3496L829.875,155.3496L829.875,151.40625L826.0664,151.40625L826.0664,155.3496ZM850.002,148.40625L843.375,148.40625L843.375,147L850.002,147L850.002,143.92383L851.4258,143.92383L851.4258,147L853.9805,147L853.9805,148.40625L851.4258,148.40625L851.4258,154.4062Q851.4258,155.4668,851.2266,156Q851.0273,156.5273,850.5234,156.7441Q850.0195,156.9609,848.9766,157.0137Q848.707,157.0312,848.1855,157.0312Q847.248,157.0312,846.3633,156.9258L846.0586,155.4785Q847.248,155.625,848.2734,155.625Q849.1172,155.625,849.457,155.5195Q849.8027,155.4141,849.9023,155.0977Q850.002,154.7812,850.002,154.0078L850.002,148.40625ZM841.5,148.3125Q840.7090000000001,147.30469,839.5898,145.9043L839.0391,145.21875L840.123,144.33984L840.9961,145.40625Q841.8926,146.42578,842.6367,147.39844L841.5,148.3125ZM845.1973,149.4668L846.0234,150.54492Q846.5098,151.16016,847.8574,152.9297L846.7266,153.8145Q846.0586,152.8184,844.0781,150.27539L845.1973,149.4668ZM846.4688,158.3262Q848.7949,158.45510000000002,850.418,158.45510000000002Q852.0645,158.45510000000002,854.3555,158.3262L854.0859,159.73239999999998Q852.2637,159.8613,850.1659999999999,159.8613Q848.0566,159.8613,846.2344,159.73239999999998Q844.7988,159.6445,843.9316,159.42770000000002Q843.0645,159.2168,842.4023,158.7129Q841.7402,158.2031,841.0781,157.207Q840.8262,157.4238,839.6953,158.5664Q838.5703,159.7031,838.3184,160.0195L837.7676,158.4316L840.375,155.8945L840.375,151.5L837.9609,151.5L837.9609,150.07617L841.7988,150.07617L841.7988,155.877Q842.3496,156.8555,842.9004,157.3418Q843.457,157.8281,844.2539,158.0332Q845.0566,158.2383,846.4688,158.3262ZM861.5918,155.2324Q860.8945,154.2422,859.8574,153.0059L859.8574,160.125L858.5449,160.125L858.5449,153.1699Q857.625,155.543,856.5645,157.0781L855.7383,155.9004Q856.6172,154.6289,857.3203,153.1523Q858.0234,151.67578,858.4746,150.22266L856.0957,150.22266L856.0957,148.875L858.5449,148.875L858.5449,146.43164Q857.4316,146.64844,856.2773,146.8125L856.1484,145.43555Q857.4492,145.25391,859.1074,144.92578Q860.7715000000001,144.5918,861.9434,144.24609L862.2715000000001,145.61133Q861.2227,145.9043,859.8574,146.17383L859.8574,148.875L862.125,148.875L862.125,150.22266L859.8574,150.22266L859.8574,151.40039Q860.5371,152.0449,861.293,152.877Q862.0488,153.7031,862.3945,154.1543L861.5918,155.2324ZM863.2676,144.75L871.1543,144.75L871.1543,149.77148L863.2676,149.77148L863.2676,144.75ZM864.6562,148.5293L869.7656,148.5293L869.7656,146.00977L864.6562,146.00977L864.6562,148.5293ZM867.8965000000001,156.082L867.8965000000001,158.25L872.4316,158.25L872.4316,159.5684L861.8203,159.5684L861.8203,158.25L866.4902,158.25L866.4902,156.082L862.998,156.082L862.998,154.8223L866.4902,154.8223L866.4902,152.7539L862.7284999999999,152.7539L862.7284999999999,151.45898L871.875,151.45898L871.875,152.7539L867.8965000000001,152.7539L867.8965000000001,154.8223L871.4238,154.8223L871.4238,156.082L867.8965000000001,156.082ZM877.4004,148.20703Q876.9727,147.5918,876.1172,146.56641Q875.2617,145.53516,874.7227,144.97852L875.8534999999999,144.09375Q876.4219,144.69141,877.2598,145.67578Q878.1034999999999,146.66016,878.5547,147.25195L877.4004,148.20703ZM888.8438,147.99023L888.7383,151.45898L890.625,151.45898L890.625,152.7539L878.9824,152.7539L878.9824,151.45898L881.5898,151.45898L882.0059,149.25L879.8848,149.25L879.8848,147.99023L882.2227,147.99023L882.5801,146.02148L879.5039,146.02148L879.5039,144.74414L889.9219,144.74414L889.9219,146.02148L884.0215000000001,146.02148L883.6582,147.99023L888.8438,147.99023ZM887.3672,149.25L883.4414,149.25L883.0312,151.45898L887.2793,151.45898L887.3672,149.25ZM877.3828,157.166L879.3398,155.5312L879.9375,156.9023Q878.6484,157.8691,877.3594,158.9414L876.4102,159.7148L875.4609,158.7832Q875.7832,158.4316,875.8887,158.2207Q876,158.0039,876,157.6699L876,150.95508L873.8379,150.95508L873.8379,149.625L877.3828,149.625L877.3828,157.166ZM881.8242,160.125L880.4414,160.125L880.4414,154.125L889.2422,154.125L889.2422,160.125L887.8008,160.125L887.8008,159.375L881.8242,159.375L881.8242,160.125ZM887.8008,158.0977L887.8008,155.4199L881.8242,155.4199L881.8242,158.0977L887.8008,158.0977ZM908.08,146.00977L908.08,147.375L891.75,147.375L891.75,146.00977L899.6191,146.00977Q899.1152,145.03711,898.6816,144.26367L900.1758,143.86523Q900.8613,145.27148,901.1659999999999,146.00977L908.08,146.00977ZM893.9473,148.75781L905.9,148.75781L905.9,150.05273L893.9473,150.05273L893.9473,148.75781ZM905.9,152.7773L893.9473,152.7773L893.9473,151.5L905.9,151.5L905.9,152.7773ZM895.1191,160.125L893.7129,160.125L893.7129,154.3125L906.117,154.3125L906.117,160.10739999999998L904.693,160.10739999999998L904.693,159.1875L895.1191,159.1875L895.1191,160.125ZM904.693,157.875L904.693,155.625L895.1191,155.625L895.1191,157.875L904.693,157.875Z" fill="#000000" fill-opacity="1" style="mix-blend-mode:passthrough"/></g></g><g style="mix-blend-mode:passthrough"><g style="mix-blend-mode:passthrough"><rect x="1010" y="85" width="270" height="135" rx="5" fill="#FDFA69" fill-opacity="1"/></g><g style="mix-blend-mode:passthrough"><path d="M1107.875,146.08008L1100.69141,146.08008Q1100.3457,147.26367,1099.93555,148.125L1106.9199,148.125L1106.9199,160.125L1105.5371,160.125L1105.5371,159.1523L1094.48047,159.1523L1094.48047,160.10739999999998L1093.08008,160.10739999999998L1093.08008,148.125L1098.27734,148.125Q1098.75195,147.21094,1099.05664,146.08008L1092.10742,146.08008L1092.10742,144.75L1107.875,144.75L1107.875,146.08008ZM1096.8418,149.45508L1094.48047,149.45508L1094.48047,157.875L1096.8418,157.875L1096.8418,149.45508ZM1098.20703,151.40625L1101.7754,151.40625L1101.7754,149.45508L1098.20703,149.45508L1098.20703,151.40625ZM1103.1582,157.875L1105.5371,157.875L1105.5371,149.45508L1103.1582,149.45508L1103.1582,157.875ZM1098.20703,154.7402L1101.7754,154.7402L1101.7754,152.6836L1098.20703,152.6836L1098.20703,154.7402ZM1101.7754,156L1098.20703,156L1098.20703,157.875L1101.7754,157.875L1101.7754,156ZM1125.0488,146.40234L1125.0488,158.0918Q1125.0488,159.1992,1124.5918,159.6621Q1124.1406,160.125,1123.0449,160.125Q1121.9141,160.125,1120.7656,160.0195L1120.5078,158.5605Q1121.668,158.7188,1122.6992,158.7188Q1123.2266,158.7188,1123.4258,158.4492Q1123.625,158.1738,1123.625,157.541L1123.625,147.75L1112.3516,147.75L1112.3516,160.14260000000002L1110.875,160.14260000000002L1110.875,146.40234L1115.7266,146.40234Q1116.3477,145.01367,1116.7871,143.75391L1118.4688,144.02344Q1118.0645,145.13672,1117.4902,146.40234L1125.0488,146.40234ZM1114.625,150L1121.2637,150L1121.2637,156.75L1114.625,156.75L1114.625,150ZM1116.0664,155.3496L1119.875,155.3496L1119.875,151.40625L1116.0664,151.40625L1116.0664,155.3496ZM1144.2559,147.48633L1144.2559,148.875L1142.041,148.875L1142.041,157.6406Q1142.041,158.9766,1141.5078,159.5332Q1140.9805,160.0898,1139.627,160.10739999999998Q1138.4082,160.1484,1137.418,160.0195L1137.1074,158.543Q1138.2617,158.6895,1139.2871,158.6895Q1139.8262,158.6895,1140.0957,158.57229999999998Q1140.3652,158.45510000000002,1140.4648,158.1504Q1140.5645,157.8398,1140.5645,157.2246L1140.5645,148.875L1135.543,148.875L1135.543,147.48633L1140.5645,147.48633L1140.5645,143.90625L1142.041,143.90625L1142.041,147.48633L1144.2559,147.48633ZM1134.752,147.26953Q1134.1367,150.78516,1132.9531,153.4746Q1133.3105,153.9785,1133.9961,154.9922Q1135.3086,156.8906,1135.6309,157.3359L1134.4121,158.2734Q1133.1875,156.4336,1132.1973,154.9922Q1130.9199,157.3652,1128.6465,159.9082L1127.6035,158.7422Q1129.9648,156.1641,1131.2598,153.6035Q1129.0742,150.43359,1128.2305,149.29102L1129.3848,148.47656Q1130.2871,149.67188,1131.9805,152.0684Q1132.8242,149.92383,1133.3105,147.25195L1128.125,147.25195L1128.125,145.81055L1134.752,145.81055L1134.752,147.26953ZM1138.1504,155.3672Q1137.6699,154.5762,1136.7734,153.1875Q1135.8828,151.79297,1135.4199,151.13086L1136.5332,150.375Q1137.1426,151.27148,1137.9336,152.4668Q1138.7305,153.6621,1139.3574,154.6113L1138.1504,155.3672ZM1157.7793,154.1367Q1158.4531,155.4727,1159.4434,156.4102Q1160.4395,157.3477,1162.2031,158.2969L1161.2832,159.4043Q1159.5547,158.4023,1158.5117,157.3066Q1157.4688,156.2109,1156.6777,154.6055Q1156.5488,154.6582,1156.4434,154.7051Q1156.3438,154.7461,1156.2734,154.7812Q1156.1035,154.8574,1155.9395,154.9277Q1155.7754,154.998,1155.6055000000001,155.0508Q1155.875,156.0176,1155.875,157.125Q1155.875,158.7305,1155.4121,159.4102Q1154.9492,160.0898,1153.7832,160.10739999999998Q1152.5762,160.14260000000002,1151.668,159.9961L1151.4395,158.707Q1152.2891,158.86520000000002,1153.4141,158.86520000000002Q1154.0176,158.86520000000002,1154.2637,158.4316Q1154.5098,157.9922,1154.5098,156.9258Q1154.5098,156.6738,1154.4746,156.2109Q1153.0566,157.248,1150.9531,158.19729999999998Q1148.8496,159.1406,1146.2891,159.9082L1145.7676,158.7773Q1148.2578,158.1562,1150.4316,157.1836Q1152.6113,156.2051,1154.2285,155.0684Q1154.0703,154.6172,1153.8066,154.1543Q1152.5059,155.0449,1150.7832,155.8242Q1149.0605,156.5977,1146.7227,157.3125L1146.2188,156.2285Q1150.5371,154.9805,1153.2031,153.2812Q1152.9043,152.9062,1152.4297,152.4258Q1150.4199,153.873,1146.4004,154.9043L1145.9316,153.7266Q1148.2285,153.1758,1149.5645,152.6543Q1150.9004,152.127,1151.6855,151.5L1147.625,151.5L1147.625,148.82812Q1146.9746,149.19727,1146.6172,149.36133L1146.0371,148.18359Q1147.7656,147.25781,1149.0723,146.12695Q1150.3848,144.99023,1151.416,143.5957L1152.6934,144.15234Q1152.377,144.60352,1151.9199,145.125L1158.4297,145.125L1158.4297,146.17383L1156.584,147.75L1160.6035,147.75L1160.6035,151.5L1153.4141,151.5L1153.3438,151.58789Q1154.5684,152.748,1155.1719,153.9434Q1156.2441,153.5156,1157.498,152.9004Q1158.752,152.2793,1159.8066,151.64062L1160.4746,152.7832Q1159.5723,153.2988,1157.7793,154.1367ZM1150.9473,146.19141Q1150.1738,147,1149.2539,147.75L1154.6562,147.75L1156.4141,146.19141L1150.9473,146.19141ZM1148.9902,148.8457L1148.9902,150.43359L1152.6406,150.43359Q1153.0449,149.83008,1153.4492,148.8457L1148.9902,148.8457ZM1159.25,150.43359L1159.25,148.8457L1154.8496,148.8457Q1154.5508,149.64258,1154.1055,150.43359L1159.25,150.43359ZM1167.4004,148.20703Q1166.9727,147.5918,1166.1172,146.56641Q1165.2617,145.53516,1164.7227,144.97852L1165.8535,144.09375Q1166.4219,144.69141,1167.2598,145.67578Q1168.1035,146.66016,1168.5547,147.25195L1167.4004,148.20703ZM1178.8438,147.99023L1178.7383,151.45898L1180.625,151.45898L1180.625,152.7539L1168.9824,152.7539L1168.9824,151.45898L1171.5898,151.45898L1172.0059,149.25L1169.8848,149.25L1169.8848,147.99023L1172.2227,147.99023L1172.5801,146.02148L1169.5039,146.02148L1169.5039,144.74414L1179.9219,144.74414L1179.9219,146.02148L1174.0215,146.02148L1173.6582,147.99023L1178.8438,147.99023ZM1177.3672,149.25L1173.4414,149.25L1173.0312,151.45898L1177.2793,151.45898L1177.3672,149.25ZM1167.3828,157.166L1169.3398,155.5312L1169.9375,156.9023Q1168.6484,157.8691,1167.3594,158.9414L1166.4102,159.7148L1165.4609,158.7832Q1165.7832,158.4316,1165.8887,158.2207Q1166,158.0039,1166,157.6699L1166,150.95508L1163.8379,150.95508L1163.8379,149.625L1167.3828,149.625L1167.3828,157.166ZM1171.8242,160.125L1170.4414,160.125L1170.4414,154.125L1179.2422,154.125L1179.2422,160.125L1177.8008,160.125L1177.8008,159.375L1171.8242,159.375L1171.8242,160.125ZM1177.8008,158.0977L1177.8008,155.4199L1171.8242,155.4199L1171.8242,158.0977L1177.8008,158.0977ZM1198.08,146.00977L1198.08,147.375L1181.75,147.375L1181.75,146.00977L1189.6191,146.00977Q1189.1152,145.03711,1188.6816,144.26367L1190.1758,143.86523Q1190.8613,145.27148,1191.166,146.00977L1198.08,146.00977ZM1183.9473,148.75781L1195.9,148.75781L1195.9,150.05273L1183.9473,150.05273L1183.9473,148.75781ZM1195.9,152.7773L1183.9473,152.7773L1183.9473,151.5L1195.9,151.5L1195.9,152.7773ZM1185.1191,160.125L1183.7129,160.125L1183.7129,154.3125L1196.117,154.3125L1196.117,160.10739999999998L1194.693,160.10739999999998L1194.693,159.1875L1185.1191,159.1875L1185.1191,160.125ZM1194.693,157.875L1194.693,155.625L1185.1191,155.625L1185.1191,157.875L1194.693,157.875Z" fill="#000000" fill-opacity="1" style="mix-blend-mode:passthrough"/></g></g><g style="mix-blend-mode:passthrough"><g style="mix-blend-mode:passthrough"><rect x="720" y="240" width="270" height="135" rx="5" fill="#D4D5FE" fill-opacity="1"/></g><g style="mix-blend-mode:passthrough"><path d="M758.33333,301L765.5,301L765.5,302.30729L759.77083,302.30729L759.77083,306.35938L764.83333,306.35938L764.83333,307.66667L759.77083,307.66667L759.77083,313L758.33333,313L758.33333,301ZM766.66667,308.8333Q766.66667,307.58854,767.2188,306.59896Q767.776,305.60417,768.6927,305.05208Q769.6146,304.5,770.6771,304.5Q771.7396,304.5,772.6562,305.04688Q773.5729,305.58854,774.1198,306.58333Q774.6667,307.57292,774.6667,308.8333Q774.6667,310.099,774.1198,311.0833Q773.5729,312.0625,772.6562,312.6146Q771.7396,313.1667,770.6771,313.1667Q769.6146,313.1667,768.6875,312.6146Q767.7604,312.0625,767.2135,311.0833Q766.66667,310.099,766.66667,308.8333ZM768.1042,308.8333Q768.1042,309.7656,768.4427,310.4479Q768.7812,311.1302,769.3646,311.4948Q769.9479,311.8594,770.6719,311.8594Q771.401,311.8594,771.9844,311.4948Q772.5677,311.1302,772.8958,310.4479Q773.2292,309.7656,773.2292,308.8333Q773.2292,307.90104,772.8958,307.22396Q772.5677,306.54167,771.9844,306.17708Q771.401,305.80729,770.6719,305.80729Q769.9479,305.80729,769.3646,306.17708Q768.7812,306.54167,768.4427,307.22396Q768.1042,307.90104,768.1042,308.8333ZM780.2292,304.5Q780.6146,304.5,780.9427,304.59896Q781.2708,304.69792,781.4792,304.84896L780.9844,306Q780.6615,305.80729,780.2135,305.80729Q779.2865,305.80729,778.6927,306.56771Q778.1042,307.32292,778.1042,308.7708L778.1042,313L776.6667,313L776.6667,304.66667L777.9583,304.66667Q777.9583,305.49479,778.0417,306.07812Q778.75,304.5,780.2292,304.5ZM787.0833,312.7188Q786.4323,313.1667,785.4375,313.1667Q783,313.1667,783,310.349L783,305.97396L781.6667,305.97396L781.6667,304.66667L783,304.66667L783,302.16667L784.4375,302.16667L784.4375,304.66667L786.6667,304.66667L786.6667,305.97396L784.4375,305.97396L784.4375,310.1562Q784.4375,311.8594,785.6458,311.8594Q786.1771,311.8594,786.6354,311.5781L787.0833,312.7188ZM792.2292,304.5Q792.6146,304.5,792.9427000000001,304.59896Q793.2708,304.69792,793.4792,304.84896L792.9844,306Q792.6615,305.80729,792.2135,305.80729Q791.2865,305.80729,790.6927000000001,306.56771Q790.1042,307.32292,790.1042,308.7708L790.1042,313L788.6667,313L788.6667,304.66667L789.9583,304.66667Q789.9583,305.49479,790.0417,306.07812Q790.75,304.5,792.2292,304.5ZM797.5885,304.5Q798.9896,304.5,799.8802000000001,305.35938Q800.7708,306.21354,800.7708,307.79688L800.7708,313L799.4635,313Q799.4635,312.0677,799.4635,311.7969Q799.0833,312.474,798.4427000000001,312.8229Q797.8021,313.1667,796.9792,313.1667Q796.1927000000001,313.1667,795.5052000000001,312.8594Q794.8177000000001,312.5521,794.4063,311.9427Q794,311.3281,794,310.474Q794,309.1823,794.9792,308.4375Q795.9635,307.69271,797.5156,307.69271Q798.3958,307.69271,799.3333,307.97396L799.3333,307.84375Q799.3333,306.8125,798.875,306.3125Q798.4167,305.80729,797.4896,305.80729Q796.7396,305.80729,796.2447999999999,306.07812Q795.75,306.34896,795.4063,306.88542L794.3542,306.38021Q794.7396,305.52083,795.6042,305.01042Q796.474,304.5,797.5885,304.5ZM799.3333,309.25Q798.3594,309,797.5521,309Q796.5365,309,795.9844,309.3906Q795.4375,309.776,795.4375,310.4792Q795.4375,311.125,795.901,311.4948Q796.3697999999999,311.8594,797.1146,311.8594Q798.0313,311.8594,798.6822999999999,311.3229Q799.3333,310.7865,799.3333,309.8385L799.3333,309.25ZM807.4219,304.5Q808.7396,304.5,809.5365,305.38021Q810.3333,306.26042,810.3333,307.875L810.3333,313L808.8958,313L808.8958,308.2656Q808.8958,307.08333,808.4322999999999,306.44792Q807.9688,305.80729,807.0625,305.80729Q806.474,305.80729,805.9479,306.08854Q805.4271,306.36458,805.099,306.91667Q804.7708,307.46875,804.7708,308.2812L804.7708,313L803.3333,313L803.3333,304.66667L804.625,304.66667Q804.625,305.48958,804.7083,306.07812Q805.125,305.30208,805.8333,304.90104Q806.5417,304.5,807.4219,304.5ZM813.6042,310.776Q814.4844,311.3021,815.3021,312.0312Q816.1197999999999,312.7604,816.7552000000001,313.5938L815.8438,314.4219Q814.599,312.6823,812.9792,311.4792L813.6042,310.776ZM834.8958,306.84375Q837.1042,307.47396,837.1042,309.6823Q837.1042,311.25,836.0312,312.125Q834.9635,313,832.8594,313L828.6667,313L828.6667,301L832.3281,301Q833.5417,301,834.4479,301.40104Q835.3542,301.80208,835.8438,302.5625Q836.3333,303.31771,836.3333,304.32292Q836.3333,306.08854,834.8958,306.84375ZM830.1042,302.30729L830.1042,306.33333L832.125,306.33333Q833.4479,306.33333,834.1719,305.79688Q834.8958,305.26042,834.8958,304.30208Q834.8958,303.38021,834.1615,302.84375Q833.4322999999999,302.30729,832.125,302.30729L830.1042,302.30729ZM832.6406,311.6927Q834.1667,311.6927,834.9167,311.1615Q835.6667,310.6302,835.6667,309.6875Q835.6667,308.724,834.9167,308.1823Q834.1667,307.64062,832.6406,307.64062L830.1042,307.64062L830.1042,311.6927L832.6406,311.6927ZM841.9219,304.5Q843.3229,304.5,844.2135,305.35938Q845.1042,306.21354,845.1042,307.79688L845.1042,313L843.7969,313Q843.7969,312.0677,843.7969,311.7969Q843.4167,312.474,842.776,312.8229Q842.1354,313.1667,841.3125,313.1667Q840.526,313.1667,839.8385,312.8594Q839.151,312.5521,838.7396,311.9427Q838.3333,311.3281,838.3333,310.474Q838.3333,309.1823,839.3125,308.4375Q840.2969,307.69271,841.849,307.69271Q842.7292,307.69271,843.6667,307.97396L843.6667,307.84375Q843.6667,306.8125,843.2083,306.3125Q842.75,305.80729,841.8229,305.80729Q841.0729,305.80729,840.5781,306.07812Q840.0833,306.34896,839.7396,306.88542L838.6875,306.38021Q839.0729,305.52083,839.9375,305.01042Q840.8072999999999,304.5,841.9219,304.5ZM843.6667,309.25Q842.6927000000001,309,841.8854,309Q840.8697999999999,309,840.3177000000001,309.3906Q839.7708,309.776,839.7708,310.4792Q839.7708,311.125,840.2344,311.4948Q840.7031,311.8594,841.4479,311.8594Q842.3646,311.8594,843.0156,311.3229Q843.6667,310.7865,843.6667,309.8385L843.6667,309.25ZM853.1042,310.6458Q853.1042,311.3906,852.7083,311.9635Q852.3177000000001,312.5365,851.6094,312.8542Q850.9062,313.1667,849.9896,313.1667Q848.7656,313.1667,847.8802000000001,312.6094Q847,312.0469,846.7292,311.0781L847.776,310.5Q848.3697999999999,311.8594,849.9896,311.8594Q850.7708,311.8594,851.2188,311.5469Q851.6667,311.2292,851.6667,310.6719Q851.6667,310.2448,851.401,309.9792Q851.1406,309.7083,850.7447999999999,309.5573Q850.349,309.4062,849.6458,309.2031Q848.7969,308.9635,848.2656,308.7448Q847.7396,308.5208,847.3697999999999,308.0833Q847,307.64583,847,306.93229Q847,306.19271,847.4115,305.64062Q847.8229,305.08333,848.5156,304.79167Q849.2135,304.5,850.0521,304.5Q851.1458,304.5,851.9322999999999,304.99479Q852.7188,305.48438,852.9896,306.33854L851.9427000000001,306.91667Q851.6822999999999,306.38542,851.1771,306.09896Q850.6771,305.80729,849.9896,305.80729Q849.2865,305.80729,848.8594,306.08854Q848.4375,306.36458,848.4375,306.88542Q848.4375,307.27083,848.6822999999999,307.51042Q848.9322999999999,307.74479,849.3021,307.89062Q849.6719,308.0312,850.3438,308.224Q851.224,308.4583,851.7708,308.6927Q852.3177000000001,308.9219,852.7083,309.3958Q853.1042,309.8698,853.1042,310.6458ZM855.4947999999999,303Q855.151,303,854.9063,302.69792Q854.6667,302.39583,854.6667,302Q854.6667,301.60417,854.9063,301.30208Q855.151,301,855.4947999999999,301Q855.8438,301,856.0885,301.29688Q856.3333,301.58854,856.3333,302Q856.3333,302.39583,856.0781,302.69792Q855.8281,303,855.4947999999999,303ZM856.3333,313L854.8958,313L854.8958,304.66667L856.3333,304.66667L856.3333,313ZM861.9639999999999,311.8594Q863.182,311.8594,863.87,310.7812L864.943,311.401Q864.495,312.2917,863.734,312.7292Q862.974,313.1667,861.995,313.1667Q860.88,313.1667,859.969,312.625Q859.057,312.0781,858.526,311.099Q858,310.1146,858,308.8333Q858,307.55208,858.526,306.57292Q859.057,305.58854,859.969,305.04688Q860.88,304.5,861.995,304.5Q862.974,304.5,863.734,304.9375Q864.495,305.375,864.943,306.26562L863.87,306.88542Q863.182,305.80729,861.9639999999999,305.80729Q860.844,305.80729,860.141,306.61458Q859.438,307.42188,859.438,308.8333Q859.438,310.2448,860.141,311.0521Q860.844,311.8594,861.9639999999999,311.8594ZM867.271,310.776Q868.151,311.3021,868.969,312.0312Q869.7860000000001,312.7604,870.422,313.5938L869.51,314.4219Q868.266,312.6823,866.646,311.4792L867.271,310.776ZM886.896,311.8594Q888.818,311.8594,889.7139999999999,310.0365L890.865,310.724Q890.375,311.875,889.3389999999999,312.5208Q888.307,313.1667,886.958,313.1667Q885.479,313.1667,884.271,312.3854Q883.062,311.6042,882.365,310.1979Q881.667,308.7917,881.667,306.99479Q881.667,305.19792,882.365,303.79167Q883.062,302.38542,884.271,301.60938Q885.479,300.83333,886.958,300.83333Q888.307,300.83333,889.3389999999999,301.48438Q890.375,302.13021,890.865,303.27604L889.7139999999999,303.96354Q888.818,302.14062,886.896,302.14062Q885.7760000000001,302.14062,884.9110000000001,302.75Q884.052,303.35938,883.578,304.46354Q883.104,305.5625,883.104,306.99479Q883.104,308.4219,883.578,309.5365Q884.052,310.6458,884.9110000000001,311.2552Q885.7760000000001,311.8594,886.896,311.8594ZM893.604,310.776Q894.484,311.3021,895.302,312.0312Q896.12,312.7604,896.755,313.5938L895.844,314.4219Q894.5989999999999,312.6823,892.979,311.4792L893.604,310.776ZM912.245,301Q913.422,301,914.3489999999999,301.46875Q915.281,301.9375,915.807,302.77083Q916.333,303.60417,916.333,304.67188Q916.333,305.73958,915.818,306.57812Q915.302,307.41146,914.375,307.875Q913.448,308.3333,912.255,308.3333L910.104,308.3333L910.104,313L908.667,313L908.667,301L912.245,301ZM912.109,307.02604Q913.453,307.02604,914.172,306.36979Q914.896,305.70833,914.896,304.67188Q914.896,303.64583,914.172,302.97917Q913.453,302.30729,912.109,302.30729L910.104,302.30729L910.104,307.02604L912.109,307.02604ZM920.922,304.5Q922.323,304.5,923.2139999999999,305.35938Q924.104,306.21354,924.104,307.79688L924.104,313L922.797,313Q922.797,312.0677,922.797,311.7969Q922.417,312.474,921.7760000000001,312.8229Q921.135,313.1667,920.312,313.1667Q919.5260000000001,313.1667,918.8389999999999,312.8594Q918.1510000000001,312.5521,917.74,311.9427Q917.333,311.3281,917.333,310.474Q917.333,309.1823,918.312,308.4375Q919.297,307.69271,920.8489999999999,307.69271Q921.729,307.69271,922.667,307.97396L922.667,307.84375Q922.667,306.8125,922.208,306.3125Q921.75,305.80729,920.823,305.80729Q920.073,305.80729,919.578,306.07812Q919.083,306.34896,918.74,306.88542L917.687,306.38021Q918.073,305.52083,918.937,305.01042Q919.807,304.5,920.922,304.5ZM922.667,309.25Q921.693,309,920.885,309Q919.87,309,919.318,309.3906Q918.771,309.776,918.771,310.4792Q918.771,311.125,919.234,311.4948Q919.703,311.8594,920.448,311.8594Q921.365,311.8594,922.016,311.3229Q922.667,310.7865,922.667,309.8385L922.667,309.25ZM932.104,310.6458Q932.104,311.3906,931.708,311.9635Q931.318,312.5365,930.609,312.8542Q929.906,313.1667,928.99,313.1667Q927.766,313.1667,926.88,312.6094Q926,312.0469,925.729,311.0781L926.7760000000001,310.5Q927.37,311.8594,928.99,311.8594Q929.771,311.8594,930.219,311.5469Q930.667,311.2292,930.667,310.6719Q930.667,310.2448,930.4010000000001,309.9792Q930.141,309.7083,929.745,309.5573Q929.3489999999999,309.4062,928.646,309.2031Q927.797,308.9635,927.266,308.7448Q926.74,308.5208,926.37,308.0833Q926,307.64583,926,306.93229Q926,306.19271,926.4110000000001,305.64062Q926.823,305.08333,927.516,304.79167Q928.2139999999999,304.5,929.052,304.5Q930.146,304.5,930.932,304.99479Q931.719,305.48438,931.99,306.33854L930.943,306.91667Q930.682,306.38542,930.177,306.09896Q929.677,305.80729,928.99,305.80729Q928.2860000000001,305.80729,927.859,306.08854Q927.438,306.36458,927.438,306.88542Q927.438,307.27083,927.682,307.51042Q927.932,307.74479,928.302,307.89062Q928.672,308.0312,929.344,308.224Q930.2239999999999,308.4583,930.771,308.6927Q931.318,308.9219,931.708,309.3958Q932.104,309.8698,932.104,310.6458ZM937.297,311.8594Q938.516,311.8594,939.203,310.7812L940.2760000000001,311.401Q939.828,312.2917,939.068,312.7292Q938.307,313.1667,937.328,313.1667Q936.2139999999999,313.1667,935.302,312.625Q934.391,312.0781,933.859,311.099Q933.333,310.1146,933.333,308.8333Q933.333,307.55208,933.859,306.57292Q934.391,305.58854,935.302,305.04688Q936.2139999999999,304.5,937.328,304.5Q938.307,304.5,939.068,304.9375Q939.828,305.375,940.2760000000001,306.26562L939.203,306.88542Q938.516,305.80729,937.297,305.80729Q936.177,305.80729,935.4739999999999,306.61458Q934.771,307.42188,934.771,308.8333Q934.771,310.2448,935.4739999999999,311.0521Q936.177,311.8594,937.297,311.8594ZM944.5889999999999,304.5Q945.99,304.5,946.88,305.35938Q947.771,306.21354,947.771,307.79688L947.771,313L946.4639999999999,313Q946.4639999999999,312.0677,946.4639999999999,311.7969Q946.083,312.474,945.443,312.8229Q944.802,313.1667,943.979,313.1667Q943.193,313.1667,942.505,312.8594Q941.818,312.5521,941.406,311.9427Q941,311.3281,941,310.474Q941,309.1823,941.979,308.4375Q942.9639999999999,307.69271,944.516,307.69271Q945.396,307.69271,946.333,307.97396L946.333,307.84375Q946.333,306.8125,945.875,306.3125Q945.417,305.80729,944.49,305.80729Q943.74,305.80729,943.245,306.07812Q942.75,306.34896,942.406,306.88542L941.354,306.38021Q941.74,305.52083,942.604,305.01042Q943.4739999999999,304.5,944.5889999999999,304.5ZM946.333,309.25Q945.359,309,944.552,309Q943.5360000000001,309,942.984,309.3906Q942.438,309.776,942.438,310.4792Q942.438,311.125,942.9010000000001,311.4948Q943.37,311.8594,944.115,311.8594Q945.031,311.8594,945.682,311.3229Q946.333,310.7865,946.333,309.8385L946.333,309.25ZM951.771,313L950.333,313L950.333,300.66667L951.771,300.66667L951.771,313Z" fill="#393939" fill-opacity="1" style="mix-blend-mode:passthrough"/></g></g><g style="mix-blend-mode:passthrough"><g style="mix-blend-mode:passthrough"><rect x="1010" y="240" width="270" height="135" rx="5" fill="#D4D5FE" fill-opacity="1"/></g><g style="mix-blend-mode:passthrough"><path d="M1025.1406,293L1029.8437,305L1028.2604,305L1026.96352,301.6406L1022.11977,301.6406L1020.8854,305L1019.447896,305L1023.94269,293L1025.1406,293ZM1026.46873,300.3333L1024.48435,294.97396L1022.59894,300.3333L1026.46873,300.3333ZM1032.7708,305L1031.3333,305L1031.3333,292.66667L1032.7708,292.66667L1032.7708,305ZM1034.6666,300.8333Q1034.6666,299.5885,1035.2187,298.59896Q1035.776,297.60417,1036.6927,297.05208Q1037.6146,296.5,1038.6771,296.5Q1039.7396,296.5,1040.6562,297.04688Q1041.5729,297.58854,1042.1198,298.58333Q1042.6666,299.5729,1042.6666,300.8333Q1042.6666,302.099,1042.1198,303.0833Q1041.5729,304.0625,1040.6562,304.6146Q1039.7396,305.1667,1038.6771,305.1667Q1037.6146,305.1667,1036.6875,304.6146Q1035.7604,304.0625,1035.2135,303.0833Q1034.6666,302.099,1034.6666,300.8333ZM1036.1041,300.8333Q1036.1041,301.7656,1036.4427,302.4479Q1036.7812,303.1302,1037.3646,303.4948Q1037.9479,303.8594,1038.6719,303.8594Q1039.401,303.8594,1039.9844,303.4948Q1040.5677,303.1302,1040.8958,302.4479Q1041.2291,301.7656,1041.2291,300.8333Q1041.2291,299.901,1040.8958,299.224Q1040.5677,298.54167,1039.9844,298.17708Q1039.401,297.80729,1038.6719,297.80729Q1037.9479,297.80729,1037.3646,298.17708Q1036.7812,298.54167,1036.4427,299.224Q1036.1041,299.901,1036.1041,300.8333ZM1051.7708,296.66667L1051.7708,304.4219Q1051.7708,306.8281,1050.6146,307.8281Q1049.4583,308.8333,1047.8646,308.8333Q1046.6198,308.8333,1045.651,308.3021Q1044.6875,307.776,1044.3385,306.8177L1045.4531,306.2135Q1046.0729,307.526,1047.8489,307.526Q1049,307.526,1049.6666,306.8333Q1050.3333,306.1406,1050.3333,304.3906L1050.3333,303.6823Q1049.875,304.4323,1049.1666,304.8021Q1048.4583,305.1667,1047.6458,305.1667Q1046.7083,305.1667,1045.8698,304.651Q1045.0364,304.1302,1044.5156,303.1458Q1044,302.1615,1044,300.8333Q1044,299.5052,1044.5104,298.51562Q1045.0208,297.52083,1045.8646,297.01042Q1046.7083,296.5,1047.6458,296.5Q1048.4739,296.5,1049.2083,296.90104Q1049.9479,297.30208,1050.3958,298.09375Q1050.4791,297.33333,1050.4791,296.66667L1051.7708,296.66667ZM1047.8177,303.8594Q1048.8437,303.8594,1049.5885,303.1302Q1050.3333,302.3958,1050.3333,300.8229Q1050.3333,299.2656,1049.5885,298.53646Q1048.8437,297.80729,1047.8177,297.80729Q1046.7396,297.80729,1046.0885,298.60417Q1045.4375,299.3958,1045.4375,300.8229Q1045.4375,302.2656,1046.0885,303.0625Q1046.7396,303.8594,1047.8177,303.8594ZM1055.2708,302.776Q1056.151,303.3021,1056.9687,304.0312Q1057.7864,304.7604,1058.4219,305.5938L1057.5104,306.4219Q1056.2656,304.6823,1054.6458,303.4792L1055.2708,302.776ZM1077.6666,301.6667Q1077.6666,302.6979,1077.2031,303.4948Q1076.7396,304.2865,1075.8385,304.7292Q1074.9427,305.1667,1073.7135,305.1667Q1071.9948,305.1667,1070.776,304.3594Q1069.5573,303.5469,1069.1719,302.2031L1070.2916,301.5104Q1070.7344,302.6458,1071.5989,303.2552Q1072.4635,303.8594,1073.75,303.8594Q1074.9219,303.8594,1075.5729,303.3385Q1076.2291,302.8125,1076.2291,301.8802Q1076.2291,301.125,1075.8229,300.6562Q1075.4166,300.1875,1074.8229,299.9271Q1074.2344,299.6667,1073.1979,299.3594Q1072.0469,299.0104,1071.3437,298.70312Q1070.6406,298.39062,1070.151,297.76562Q1069.6666,297.14062,1069.6666,296.125Q1069.6666,295.09896,1070.1823,294.35417Q1070.6979,293.60417,1071.5989,293.21875Q1072.5052,292.83333,1073.6302,292.83333Q1075.2031,292.83333,1076.1719,293.53646Q1077.1458,294.23438,1077.4844,295.30729L1076.3802,295.99479Q1076.0052,295.125,1075.3385,294.63542Q1074.6719,294.14062,1073.5729,294.14062Q1072.4531,294.14062,1071.776,294.64062Q1071.1041,295.13542,1071.1041,295.97396Q1071.1041,296.59375,1071.4687,296.98958Q1071.8333,297.38021,1072.3802,297.60938Q1072.9323,297.83854,1073.8958,298.11979Q1075.1094,298.47917,1075.8541,298.82292Q1076.5989,299.1615,1077.1302,299.8542Q1077.6666,300.5417,1077.6666,301.6667ZM1079.8281,295Q1079.4844,295,1079.2396,294.69792Q1079,294.39583,1079,294Q1079,293.60417,1079.2396,293.30208Q1079.4844,293,1079.8281,293Q1080.1771,293,1080.4219,293.29688Q1080.6666,293.58854,1080.6666,294Q1080.6666,294.39583,1080.4114,294.69792Q1080.1614,295,1079.8281,295ZM1080.6666,305L1079.2291,305L1079.2291,296.66667L1080.6666,296.66667L1080.6666,305ZM1091.6666,296.5Q1092.8541,296.5,1093.5937,297.35938Q1094.3333,298.21354,1094.3333,299.8177L1094.3333,305L1092.8958,305L1092.8958,300.2656Q1092.8958,299.0677,1092.4895999999999,298.4375Q1092.0885,297.80729,1091.2864,297.80729Q1090.4739,297.80729,1089.901,298.44792Q1089.3333,299.0833,1089.3333,300.2812L1089.3333,305L1087.8958,305L1087.8958,300.2656Q1087.8958,299.0833,1087.5,298.44792Q1087.1041,297.80729,1086.3437,297.80729Q1085.5469,297.80729,1084.9895999999999,298.45312Q1084.4375,299.099,1084.4375,300.2812L1084.4375,305L1083,305L1083,296.66667L1084.276,296.66667Q1084.276,297.22917,1084.3594,297.96875Q1084.7656,297.23958,1085.3854000000001,296.86979Q1086.0052,296.5,1086.7395999999999,296.5Q1087.5573,296.5,1088.1770999999999,296.94271Q1088.7969,297.38542,1089.0781,298.25521Q1089.4791,297.36979,1090.1614,296.9375Q1090.8437,296.5,1091.6666,296.5ZM1101.8958,296.66667L1103.3333,296.66667L1103.3333,305L1102.0416,305Q1102.0416,304.1615,1101.9583,303.6042Q1101.5469,304.3854,1100.8229000000001,304.776Q1100.1041,305.1667,1099.2552,305.1667Q1097.9323,305.1667,1097.1302,304.2917Q1096.3333,303.4115,1096.3333,301.7917L1096.3333,296.66667L1097.7708,296.66667L1097.7708,301.401Q1097.7708,302.5833,1098.2291,303.224Q1098.6927,303.8594,1099.5937,303.8594Q1100.1875,303.8594,1100.7135,303.5833Q1101.2395999999999,303.3021,1101.5677,302.7448Q1101.8958,302.1875,1101.8958,301.3698L1101.8958,296.66667ZM1107.4375,305L1106,305L1106,292.66667L1107.4375,292.66667L1107.4375,305ZM1112.9219,296.5Q1114.3229000000001,296.5,1115.2135,297.35938Q1116.1041,298.21354,1116.1041,299.7969L1116.1041,305L1114.7969,305Q1114.7969,304.0677,1114.7969,303.7969Q1114.4166,304.474,1113.776,304.8229Q1113.1354000000001,305.1667,1112.3125,305.1667Q1111.526,305.1667,1110.8385,304.8594Q1110.151,304.5521,1109.7395999999999,303.9427Q1109.3333,303.3281,1109.3333,302.474Q1109.3333,301.1823,1110.3125,300.4375Q1111.2969,299.6927,1112.8489,299.6927Q1113.7291,299.6927,1114.6666,299.974L1114.6666,299.8438Q1114.6666,298.8125,1114.2083,298.3125Q1113.75,297.80729,1112.8229000000001,297.80729Q1112.0729000000001,297.80729,1111.5781,298.07812Q1111.0833,298.34896,1110.7395999999999,298.88542L1109.6875,298.38021Q1110.0729000000001,297.52083,1110.9375,297.01042Q1111.8073,296.5,1112.9219,296.5ZM1114.6666,301.25Q1113.6927,301,1112.8854000000001,301Q1111.8698,301,1111.3177,301.3906Q1110.7708,301.776,1110.7708,302.4792Q1110.7708,303.125,1111.2344,303.4948Q1111.7031,303.8594,1112.4479000000001,303.8594Q1113.3645999999999,303.8594,1114.0156,303.3229Q1114.6666,302.7865,1114.6666,301.8385L1114.6666,301.25ZM1126.578,297.66667Q1127.604,297.66667,1128.406,298.16667Q1129.208,298.66146,1129.656,299.5156Q1130.104,300.3646,1130.104,301.3958Q1130.104,302.4531,1129.625,303.3229Q1129.151,304.1875,1128.292,304.6771Q1127.437,305.1667,1126.385,305.1667Q1125.302,305.1667,1124.453,304.6771Q1123.604,304.1875,1123.135,303.3073Q1122.667,302.4219,1122.667,301.2917Q1122.667,300.4062,1122.974,299.6615Q1123.281,298.91667,1123.99,297.70833L1126.75,293L1128.375,293L1125.943,297.14062Q1125.714,297.51042,1125.49,297.82812Q1125.979,297.66667,1126.578,297.66667ZM1126.396,303.8594Q1127.427,303.8594,1128.047,303.1823Q1128.667,302.5052,1128.667,301.4271Q1128.667,300.3385,1128.052,299.6562Q1127.443,298.97396,1126.396,298.97396Q1125.344,298.97396,1124.724,299.6562Q1124.104,300.3385,1124.104,301.4271Q1124.104,302.5208,1124.724,303.1927Q1125.344,303.8594,1126.396,303.8594ZM1137.375,294.30729L1131.667,294.30729L1131.667,293L1139,293L1139,293.93229L1134.594,305L1133.016,305L1137.375,294.30729ZM1141.937,302.776Q1142.818,303.3021,1143.635,304.0312Q1144.453,304.7604,1145.089,305.5938L1144.177,306.4219Q1142.932,304.6823,1141.312,303.4792L1141.937,302.776ZM1161.474,293L1166.177,305L1164.594,305L1163.297,301.6406L1158.453,301.6406L1157.219,305L1155.781,305L1160.276,293L1161.474,293ZM1162.802,300.3333L1160.818,294.97396L1158.932,300.3333L1162.802,300.3333ZM1173.333,292.66667L1174.771,292.66667L1174.771,305L1173.479,305Q1173.479,304.1458,1173.396,303.5573Q1172.948,304.3698,1172.208,304.7708Q1171.474,305.1667,1170.646,305.1667Q1169.693,305.1667,1168.854,304.6562Q1168.021,304.1458,1167.51,303.1615Q1167,302.1771,1167,300.8333Q1167,299.5052,1167.51,298.52083Q1168.021,297.53646,1168.854,297.02083Q1169.693,296.5,1170.646,296.5Q1171.438,296.5,1172.156,296.875Q1172.875,297.24479,1173.333,297.98438L1173.333,292.66667ZM1170.818,303.8594Q1171.844,303.8594,1172.589,303.1302Q1173.333,302.3958,1173.333,300.8229Q1173.333,299.2656,1172.589,298.53646Q1171.844,297.80729,1170.818,297.80729Q1169.74,297.80729,1169.089,298.60417Q1168.438,299.3958,1168.438,300.8229Q1168.438,302.2656,1169.089,303.0625Q1169.74,303.8594,1170.818,303.8594ZM1180.255,296.5Q1181.656,296.5,1182.547,297.35938Q1183.438,298.21354,1183.438,299.7969L1183.438,305L1182.13,305Q1182.13,304.0677,1182.13,303.7969Q1181.75,304.474,1181.109,304.8229Q1180.469,305.1667,1179.646,305.1667Q1178.859,305.1667,1178.172,304.8594Q1177.484,304.5521,1177.073,303.9427Q1176.667,303.3281,1176.667,302.474Q1176.667,301.1823,1177.646,300.4375Q1178.63,299.6927,1180.182,299.6927Q1181.062,299.6927,1182,299.974L1182,299.8438Q1182,298.8125,1181.542,298.3125Q1181.083,297.80729,1180.156,297.80729Q1179.406,297.80729,1178.911,298.07812Q1178.417,298.34896,1178.073,298.88542L1177.021,298.38021Q1177.406,297.52083,1178.271,297.01042Q1179.141,296.5,1180.255,296.5ZM1182,301.25Q1181.026,301,1180.219,301Q1179.203,301,1178.651,301.3906Q1178.104,301.776,1178.104,302.4792Q1178.104,303.125,1178.568,303.4948Q1179.036,303.8594,1179.781,303.8594Q1180.698,303.8594,1181.349,303.3229Q1182,302.7865,1182,301.8385L1182,301.25ZM1186.938,302.776Q1187.818,303.3021,1188.635,304.0312Q1189.453,304.7604,1190.089,305.5938L1189.177,306.4219Q1187.932,304.6823,1186.312,303.4792L1186.938,302.776ZM1209.333,301.6667Q1209.333,302.6979,1208.87,303.4948Q1208.406,304.2865,1207.505,304.7292Q1206.609,305.1667,1205.38,305.1667Q1203.661,305.1667,1202.443,304.3594Q1201.224,303.5469,1200.839,302.2031L1201.958,301.5104Q1202.401,302.6458,1203.266,303.2552Q1204.13,303.8594,1205.417,303.8594Q1206.589,303.8594,1207.24,303.3385Q1207.896,302.8125,1207.896,301.8802Q1207.896,301.125,1207.49,300.6562Q1207.083,300.1875,1206.49,299.9271Q1205.901,299.6667,1204.865,299.3594Q1203.714,299.0104,1203.01,298.70312Q1202.307,298.39062,1201.818,297.76562Q1201.333,297.14062,1201.333,296.125Q1201.333,295.09896,1201.849,294.35417Q1202.365,293.60417,1203.266,293.21875Q1204.172,292.83333,1205.297,292.83333Q1206.87,292.83333,1207.839,293.53646Q1208.812,294.23438,1209.151,295.30729L1208.047,295.99479Q1207.672,295.125,1207.005,294.63542Q1206.339,294.14062,1205.24,294.14062Q1204.12,294.14062,1203.443,294.64062Q1202.771,295.13542,1202.771,295.97396Q1202.771,296.59375,1203.135,296.98958Q1203.5,297.38021,1204.047,297.60938Q1204.599,297.83854,1205.562,298.11979Q1206.776,298.47917,1207.521,298.82292Q1208.266,299.1615,1208.797,299.8542Q1209.333,300.5417,1209.333,301.6667ZM1219.667,296.5Q1220.854,296.5,1221.594,297.35938Q1222.333,298.21354,1222.333,299.8177L1222.333,305L1220.896,305L1220.896,300.2656Q1220.896,299.0677,1220.49,298.4375Q1220.089,297.80729,1219.286,297.80729Q1218.474,297.80729,1217.901,298.44792Q1217.333,299.0833,1217.333,300.2812L1217.333,305L1215.896,305L1215.896,300.2656Q1215.896,299.0833,1215.5,298.44792Q1215.104,297.80729,1214.344,297.80729Q1213.547,297.80729,1212.99,298.45312Q1212.438,299.099,1212.438,300.2812L1212.438,305L1211,305L1211,296.66667L1212.276,296.66667Q1212.276,297.22917,1212.359,297.96875Q1212.766,297.23958,1213.385,296.86979Q1214.005,296.5,1214.74,296.5Q1215.557,296.5,1216.177,296.94271Q1216.797,297.38542,1217.078,298.25521Q1217.479,297.36979,1218.161,296.9375Q1218.844,296.5,1219.667,296.5ZM1227.589,296.5Q1228.99,296.5,1229.88,297.35938Q1230.771,298.21354,1230.771,299.7969L1230.771,305L1229.464,305Q1229.464,304.0677,1229.464,303.7969Q1229.083,304.474,1228.443,304.8229Q1227.802,305.1667,1226.979,305.1667Q1226.193,305.1667,1225.505,304.8594Q1224.818,304.5521,1224.406,303.9427Q1224,303.3281,1224,302.474Q1224,301.1823,1224.979,300.4375Q1225.964,299.6927,1227.516,299.6927Q1228.396,299.6927,1229.333,299.974L1229.333,299.8438Q1229.333,298.8125,1228.875,298.3125Q1228.417,297.80729,1227.49,297.80729Q1226.74,297.80729,1226.245,298.07812Q1225.75,298.34896,1225.406,298.88542L1224.354,298.38021Q1224.74,297.52083,1225.604,297.01042Q1226.474,296.5,1227.589,296.5ZM1229.333,301.25Q1228.359,301,1227.552,301Q1226.536,301,1225.984,301.3906Q1225.438,301.776,1225.438,302.4792Q1225.438,303.125,1225.901,303.4948Q1226.37,303.8594,1227.115,303.8594Q1228.031,303.8594,1228.682,303.3229Q1229.333,302.7865,1229.333,301.8385L1229.333,301.25ZM1234.771,305L1233.333,305L1233.333,292.66667L1234.771,292.66667L1234.771,305ZM1238.771,305L1237.333,305L1237.333,292.66667L1238.771,292.66667L1238.771,305ZM1240.333,293L1249,293L1249,294.30729L1245.438,294.30729L1245.438,305L1244,305L1244,294.30729L1240.333,294.30729L1240.333,293ZM1253.589,296.5Q1254.99,296.5,1255.88,297.35938Q1256.771,298.21354,1256.771,299.7969L1256.771,305L1255.464,305Q1255.464,304.0677,1255.464,303.7969Q1255.083,304.474,1254.443,304.8229Q1253.802,305.1667,1252.979,305.1667Q1252.193,305.1667,1251.505,304.8594Q1250.818,304.5521,1250.406,303.9427Q1250,303.3281,1250,302.474Q1250,301.1823,1250.979,300.4375Q1251.964,299.6927,1253.516,299.6927Q1254.396,299.6927,1255.333,299.974L1255.333,299.8438Q1255.333,298.8125,1254.875,298.3125Q1254.417,297.80729,1253.49,297.80729Q1252.74,297.80729,1252.245,298.07812Q1251.75,298.34896,1251.406,298.88542L1250.354,298.38021Q1250.74,297.52083,1251.604,297.01042Q1252.474,296.5,1253.589,296.5ZM1255.333,301.25Q1254.359,301,1253.552,301Q1252.536,301,1251.984,301.3906Q1251.438,301.776,1251.438,302.4792Q1251.438,303.125,1251.901,303.4948Q1252.37,303.8594,1253.115,303.8594Q1254.031,303.8594,1254.682,303.3229Q1255.333,302.7865,1255.333,301.8385L1255.333,301.25ZM1260.771,305L1259.333,305L1259.333,292.66667L1260.771,292.66667L1260.771,305ZM1267.151,300.1198L1270.594,305L1268.88,305L1266.208,301.1771L1264.771,302.7865L1264.771,305L1263.333,305L1263.333,292.66667L1264.771,292.66667L1264.771,301.0365L1268.578,296.66667L1270.24,296.66667L1267.151,300.1198ZM1094.2292,321.8594Q1096.151,321.8594,1097.0469,320.0365L1098.1979000000001,320.724Q1097.7083,321.875,1096.6719,322.5208Q1095.6406,323.1667,1094.2917,323.1667Q1092.8125,323.1667,1091.6042,322.3854Q1090.3958,321.6042,1089.6979000000001,320.1979Q1089,318.7917,1089,316.9948Q1089,315.1979,1089.6979000000001,313.7917Q1090.3958,312.3854,1091.6042,311.6094Q1092.8125,310.8333,1094.2917,310.8333Q1095.6406,310.8333,1096.6719,311.4844Q1097.7083,312.1302,1098.1979000000001,313.276L1097.0469,313.9635Q1096.151,312.1406,1094.2292,312.1406Q1093.1094,312.1406,1092.2448,312.75Q1091.3854000000001,313.3594,1090.9115,314.4635Q1090.4375,315.5625,1090.4375,316.9948Q1090.4375,318.4219,1090.9115,319.5365Q1091.3854000000001,320.6458,1092.2448,321.2552Q1093.1094,321.8594,1094.2292,321.8594ZM1102.3333,313.3333L1103.6667,313.3333L1103.6667,316.6667L1106.6667,316.6667L1106.6667,317.974L1103.6667,317.974L1103.6667,321L1102.3333,321L1102.3333,317.974L1099.3333,317.974L1099.3333,316.6667L1102.3333,316.6667L1102.3333,313.3333ZM1111,313.3333L1112.3333,313.3333L1112.3333,316.6667L1115.3333,316.6667L1115.3333,317.974L1112.3333,317.974L1112.3333,321L1111,321L1111,317.974L1108,317.974L1108,316.6667L1111,316.6667L1111,313.3333ZM1118.2708,320.776Q1119.151,321.3021,1119.969,322.0312Q1120.786,322.7604,1121.422,323.5938L1120.51,324.4219Q1119.266,322.6823,1117.6458,321.4792L1118.2708,320.776ZM1134.943,323.1667Q1133.885,323.1667,1133.099,322.651Q1132.312,322.1354,1132.057,321.0729L1133.177,320.3958Q1133.578,321.8594,1134.938,321.8594Q1135.849,321.8594,1136.255,321.2031Q1136.667,320.5469,1136.667,319.2812L1136.667,311L1138.104,311L1138.104,319.4062Q1138.104,321.3542,1137.219,322.2604Q1136.339,323.1667,1134.943,323.1667ZM1143.589,314.5Q1144.99,314.5,1145.88,315.3594Q1146.771,316.2135,1146.771,317.7969L1146.771,323L1145.464,323Q1145.464,322.0677,1145.464,321.7969Q1145.083,322.474,1144.443,322.8229Q1143.802,323.1667,1142.979,323.1667Q1142.193,323.1667,1141.505,322.8594Q1140.818,322.5521,1140.406,321.9427Q1140,321.3281,1140,320.474Q1140,319.1823,1140.979,318.4375Q1141.964,317.6927,1143.516,317.6927Q1144.396,317.6927,1145.333,317.974L1145.333,317.8438Q1145.333,316.8125,1144.875,316.3125Q1144.417,315.8073,1143.49,315.8073Q1142.74,315.8073,1142.245,316.0781Q1141.75,316.349,1141.406,316.8854L1140.354,316.3802Q1140.74,315.5208,1141.604,315.0104Q1142.474,314.5,1143.589,314.5ZM1145.333,319.25Q1144.359,319,1143.552,319Q1142.536,319,1141.984,319.3906Q1141.437,319.776,1141.437,320.4792Q1141.437,321.125,1141.901,321.4948Q1142.37,321.8594,1143.115,321.8594Q1144.031,321.8594,1144.682,321.3229Q1145.333,320.7865,1145.333,319.8385L1145.333,319.25ZM1149.714,314.6667L1152.271,321.1875L1154.672,314.6667L1156.078,314.6667L1152.734,323L1151.63,323L1148.161,314.6667L1149.714,314.6667ZM1160.589,314.5Q1161.99,314.5,1162.88,315.3594Q1163.771,316.2135,1163.771,317.7969L1163.771,323L1162.464,323Q1162.464,322.0677,1162.464,321.7969Q1162.083,322.474,1161.443,322.8229Q1160.802,323.1667,1159.979,323.1667Q1159.193,323.1667,1158.505,322.8594Q1157.818,322.5521,1157.406,321.9427Q1157,321.3281,1157,320.474Q1157,319.1823,1157.979,318.4375Q1158.964,317.6927,1160.516,317.6927Q1161.396,317.6927,1162.333,317.974L1162.333,317.8438Q1162.333,316.8125,1161.875,316.3125Q1161.417,315.8073,1160.49,315.8073Q1159.74,315.8073,1159.245,316.0781Q1158.75,316.349,1158.406,316.8854L1157.354,316.3802Q1157.74,315.5208,1158.604,315.0104Q1159.474,314.5,1160.589,314.5ZM1162.333,319.25Q1161.359,319,1160.552,319Q1159.536,319,1158.984,319.3906Q1158.438,319.776,1158.438,320.4792Q1158.438,321.125,1158.901,321.4948Q1159.37,321.8594,1160.115,321.8594Q1161.031,321.8594,1161.682,321.3229Q1162.333,320.7865,1162.333,319.8385L1162.333,319.25ZM1167.271,320.776Q1168.151,321.3021,1168.969,322.0312Q1169.786,322.7604,1170.422,323.5938L1169.51,324.4219Q1168.266,322.6823,1166.646,321.4792L1167.271,320.776ZM1186.896,321.8594Q1188.818,321.8594,1189.714,320.0365L1190.865,320.724Q1190.375,321.875,1189.339,322.5208Q1188.307,323.1667,1186.958,323.1667Q1185.479,323.1667,1184.271,322.3854Q1183.062,321.6042,1182.365,320.1979Q1181.667,318.7917,1181.667,316.9948Q1181.667,315.1979,1182.365,313.7917Q1183.062,312.3854,1184.271,311.6094Q1185.479,310.8333,1186.958,310.8333Q1188.307,310.8333,1189.339,311.4844Q1190.375,312.1302,1190.865,313.276L1189.714,313.9635Q1188.818,312.1406,1186.896,312.1406Q1185.776,312.1406,1184.911,312.75Q1184.052,313.3594,1183.578,314.4635Q1183.104,315.5625,1183.104,316.9948Q1183.104,318.4219,1183.578,319.5365Q1184.052,320.6458,1184.911,321.2552Q1185.776,321.8594,1186.896,321.8594ZM1199.729,314.026L1201.333,314.026L1201.333,315.3333L1199.443,315.3333L1198.667,318.6667L1200.333,318.6667L1200.333,319.974L1198.38,319.974L1197.682,323L1196.411,323L1197.109,319.974L1194.557,319.974L1193.859,323L1192.594,323L1193.286,319.974L1191.667,319.974L1191.667,318.6667L1193.573,318.6667L1194.349,315.3333L1192.667,315.3333L1192.667,314.026L1194.635,314.026L1195.333,311L1196.604,311L1195.906,314.026L1198.458,314.026L1199.156,311L1200.422,311L1199.729,314.026ZM1195.62,315.3333L1194.844,318.6667L1197.396,318.6667L1198.177,315.3333L1195.62,315.3333Z" fill="#393939" fill-opacity="1" style="mix-blend-mode:passthrough"/></g></g></g></svg>