<svg xmlns="http://www.w3.org/2000/svg" xmlns:xlink="http://www.w3.org/1999/xlink" fill="none" version="1.1" width="850" height="250" viewBox="0 0 850 250"><g style="mix-blend-mode:passthrough"><g style="mix-blend-mode:passthrough"><g style="mix-blend-mode:passthrough"><g style="mix-blend-mode:passthrough"><rect x="0" y="105" width="270" height="145" rx="5" fill="#7E81FD" fill-opacity="1"/></g><g style="mix-blend-mode:passthrough"><path d="M94.8125,177.625L89.11719,177.625L89.11719,182.5293L95.75,182.5293L95.75,184L87.5,184L87.5,170.5L95.5625,170.5L95.5625,171.9707L89.11719,171.9707L89.11719,176.1543L94.8125,176.1543L94.8125,177.625ZM103.1328,182.7168Q105.2949,182.7168,106.3027,180.666L107.5977,181.4395Q107.0469,182.7344,105.8809,183.4609Q104.7207,184.1875,103.2031,184.1875Q101.5391,184.1875,100.1797,183.3086Q98.8203,182.4297,98.0352,180.8477Q97.25,179.2656,97.25,177.2441Q97.25,175.22266,98.0352,173.64062Q98.8203,172.05859,100.1797,171.18555Q101.5391,170.3125,103.2031,170.3125Q104.7207,170.3125,105.8809,171.04492Q107.0469,171.77148,107.5977,173.06055L106.3027,173.83398Q105.2949,171.7832,103.1328,171.7832Q101.873,171.7832,100.9004,172.46875Q99.9336,173.1543,99.4004,174.39648Q98.8672,175.63281,98.8672,177.2441Q98.8672,178.8496,99.4004,180.1035Q99.9336,181.3516,100.9004,182.0371Q101.873,182.7168,103.1328,182.7168ZM120.7578,170.5L122.1172,170.5L122.1172,184L120.5,184L120.5,173.71094L116.3633,180.5137L115.4141,180.5137L111.2422,173.66992L111.2422,184L109.625,184L109.625,170.5L111.0898,170.5L115.9355,178.5215L120.7578,170.5ZM130.0332,170.5L135.3242,184L133.543,184L132.084,180.2207L126.6348,180.2207L125.2461,184L123.6289,184L128.6855,170.5L130.0332,170.5ZM131.5273,178.75L129.29489999999998,172.7207L127.1738,178.75L131.5273,178.75ZM145.25,180.25Q145.25,181.4102,144.7285,182.3066Q144.207,183.19729999999998,143.1934,183.6953Q142.1855,184.1875,140.80270000000002,184.1875Q138.8691,184.1875,137.498,183.2793Q136.127,182.3652,135.6934,180.8535L136.9531,180.0742Q137.4512,181.3516,138.4238,182.0371Q139.3965,182.7168,140.8438,182.7168Q142.1621,182.7168,142.8945,182.1309Q143.6328,181.5391,143.6328,180.4902Q143.6328,179.6406,143.1758,179.1133Q142.7188,178.5859,142.0508,178.293Q141.3887,178,140.2227,177.6543Q138.92770000000002,177.2617,138.1367,176.91602Q137.3457,176.56445,136.79489999999998,175.86133Q136.25,175.1582,136.25,174.01562Q136.25,172.86133,136.83010000000002,172.02344Q137.4102,171.17969,138.4238,170.74609Q139.4434,170.3125,140.709,170.3125Q142.4785,170.3125,143.5684,171.10352Q144.6641,171.88867,145.04489999999998,173.0957L143.80270000000002,173.86914Q143.3809,172.89062,142.6309,172.33984Q141.8809,171.7832,140.6445,171.7832Q139.38479999999998,171.7832,138.623,172.3457Q137.8672,172.90234,137.8672,173.8457Q137.8672,174.54297,138.2773,174.98828Q138.6875,175.42773,139.30270000000002,175.68555Q139.9238,175.94336,141.0078,176.25977Q142.373,176.66406,143.2109,177.0508Q144.0488,177.4316,144.6465,178.2109Q145.25,178.9844,145.25,180.25ZM150.834,182.7168Q152.20510000000002,182.7168,152.9785,181.5039L154.1855,182.2012Q153.6816,183.2031,152.8262,183.6953Q151.9707,184.1875,150.8691,184.1875Q149.61520000000002,184.1875,148.5898,183.5781Q147.5645,182.9629,146.9668,181.8613Q146.375,180.7539,146.375,179.3125Q146.375,177.8711,146.9668,176.76953Q147.5645,175.66211,148.5898,175.05273Q149.61520000000002,174.4375,150.8691,174.4375Q151.9707,174.4375,152.8262,174.92969Q153.6816,175.42188,154.1855,176.42383L152.9785,177.1211Q152.20510000000002,175.9082,150.834,175.9082Q149.5742,175.9082,148.7832,176.81641Q147.9922,177.7246,147.9922,179.3125Q147.9922,180.9004,148.7832,181.8086Q149.5742,182.7168,150.834,182.7168ZM159.7578,174.4375Q160.1914,174.4375,160.5605,174.54883Q160.9297,174.66016,161.16410000000002,174.83008L160.60739999999998,176.125Q160.2441,175.9082,159.74020000000002,175.9082Q158.69729999999998,175.9082,158.0293,176.76367Q157.3672,177.6133,157.3672,179.2422L157.3672,184L155.75,184L155.75,174.625L157.2031,174.625Q157.2031,175.55664,157.2969,176.21289Q158.0938,174.4375,159.7578,174.4375ZM163.0566,172.75Q162.66989999999998,172.75,162.3945,172.41016Q162.125,172.07031,162.125,171.625Q162.125,171.17969,162.3945,170.83984Q162.66989999999998,170.5,163.0566,170.5Q163.44920000000002,170.5,163.7246,170.83398Q164,171.16211,164,171.625Q164,172.07031,163.7129,172.41016Q163.4316,172.75,163.0566,172.75ZM164,184L162.3828,184L162.3828,174.625L164,174.625L164,184ZM171.28910000000002,174.4375Q172.3438,174.4375,173.2812,175.02344Q174.2246,175.60352,174.793,176.71094Q175.3672,177.8184,175.3672,179.3125Q175.3672,180.8242,174.793,181.9316Q174.2246,183.0391,173.2812,183.6133Q172.3438,184.1875,171.2832,184.1875Q170.38670000000002,184.1875,169.57229999999998,183.75979999999998Q168.7637,183.3262,168.2422,182.4824L168.2422,188.125L166.625,188.125L166.625,174.625L168.0781,174.625Q168.0781,175.55664,168.1719,176.26562Q168.67579999999998,175.35156,169.5078,174.89453Q170.3398,174.4375,171.28910000000002,174.4375ZM171.07229999999998,182.7168Q172.2852,182.7168,173.01760000000002,181.8262Q173.75,180.9297,173.75,179.3125Q173.75,177.6953,173.01760000000002,176.80469Q172.2852,175.9082,171.07229999999998,175.9082Q170.3457,175.9082,169.7012,176.24805Q169.0625,176.58789,168.6523,177.3555Q168.2422,178.1172,168.2422,179.3125Q168.2422,180.5078,168.6523,181.2754Q169.0625,182.043,169.7012,182.3828Q170.3457,182.7168,171.07229999999998,182.7168ZM182.8438,183.6836Q182.1113,184.1875,180.9922,184.1875Q178.25,184.1875,178.25,181.0176L178.25,176.0957L176.75,176.0957L176.75,174.625L178.25,174.625L178.25,171.8125L179.8672,171.8125L179.8672,174.625L182.375,174.625L182.375,176.0957L179.8672,176.0957L179.8672,180.8008Q179.8672,182.7168,181.22660000000002,182.7168Q181.82420000000002,182.7168,182.3398,182.4004L182.8438,183.6836Z" fill="#FFFFFF" fill-opacity="1" style="mix-blend-mode:passthrough"/></g></g><g style="mix-blend-mode:passthrough"><g style="mix-blend-mode:passthrough"><rect x="290" y="105" width="270" height="145" rx="5" fill="#7E81FD" fill-opacity="1"/></g><g style="mix-blend-mode:passthrough"><path d="M409.05664,170.5Q410.95508,170.5,412.47852,171.29102Q414.002,172.08203,414.8691,173.60547Q415.7422,175.12305,415.7422,177.2324Q415.7422,179.3535,414.8809,180.877Q414.0195,182.3945,412.49609,183.19729999999998Q410.97266,184,409.05664,184L405.5,184L405.5,170.5L409.05664,170.5ZM408.88086,182.5293Q411.3418,182.5293,412.73047,181.1523Q414.125,179.7754,414.125,177.2441Q414.125,174.74805,412.72461,173.35938Q411.32422,171.9707,408.88086,171.9707L407.11719,171.9707L407.11719,182.5293L408.88086,182.5293ZM417.5,177.2441Q417.5,175.16992,418.2793,173.58789Q419.0586,172.00586,420.4238,171.16211Q421.7949,170.3125,423.5,170.3125Q425.2051,170.3125,426.5703,171.16797Q427.9414,172.02344,428.7207,173.59961Q429.5,175.16992,429.5,177.2441Q429.5,179.3359,428.709,180.9121Q427.9238,182.4824,426.5645,183.3379Q425.2051,184.1875,423.5,184.1875Q421.7949,184.1875,420.4238,183.3438Q419.0586,182.5,418.2793,180.918Q417.5,179.3359,417.5,177.2441ZM419.1172,177.25Q419.1172,178.8555,419.6445,180.0977Q420.1719,181.334,421.168,182.0254Q422.1699,182.7168,423.5,182.7168Q424.8359,182.7168,425.8203,182.0254Q426.8105,181.334,427.3438,180.0977Q427.8828,178.8555,427.8828,177.25Q427.8828,175.62695,427.3438,174.39062Q426.8105,173.14844,425.8203,172.46875Q424.8359,171.7832,423.5,171.7832Q422.1699,171.7832,421.1797,172.46875Q420.1953,173.14844,419.6562,174.39062Q419.1172,175.62695,419.1172,177.25ZM442.8828,170.5L444.2422,170.5L444.2422,184L442.625,184L442.625,173.71094L438.4883,180.5137L437.5391,180.5137L433.3672,173.66992L433.3672,184L431.75,184L431.75,170.5L433.2148,170.5L438.0605,178.5215L442.8828,170.5Z" fill="#FFFFFF" fill-opacity="1" style="mix-blend-mode:passthrough"/></g></g><g style="mix-blend-mode:passthrough"><g style="mix-blend-mode:passthrough"><rect x="580" y="105" width="270" height="145" rx="5" fill="#7E81FD" fill-opacity="1"/></g><g style="mix-blend-mode:passthrough"><path d="M703.50781,177.0742Q705.9922,177.7832,705.9922,180.2676Q705.9922,182.0312,704.78516,183.0156Q703.58398,184,701.2168,184L696.5,184L696.5,170.5L700.61914,170.5Q701.98438,170.5,703.00391,170.95117Q704.02344,171.40234,704.57422,172.25781Q705.125,173.10742,705.125,174.23828Q705.125,176.22461,703.50781,177.0742ZM698.11719,171.9707L698.11719,176.5L700.39062,176.5Q701.87891,176.5,702.69336,175.89648Q703.50781,175.29297,703.50781,174.21484Q703.50781,173.17773,702.68164,172.57422Q701.86133,171.9707,700.39062,171.9707L698.11719,171.9707ZM700.9707,182.5293Q702.6875,182.5293,703.53125,181.9316Q704.375,181.334,704.375,180.2734Q704.375,179.1895,703.53125,178.5801Q702.6875,177.9707,700.9707,177.9707L698.11719,177.9707L698.11719,182.5293L700.9707,182.5293ZM707.375,177.2441Q707.375,175.16992,708.1543,173.58789Q708.9336,172.00586,710.2988,171.16211Q711.6699,170.3125,713.375,170.3125Q715.0801,170.3125,716.4453,171.16797Q717.8164,172.02344,718.5957,173.59961Q719.375,175.16992,719.375,177.2441Q719.375,179.3359,718.584,180.9121Q717.7988,182.4824,716.4395,183.3379Q715.0801,184.1875,713.375,184.1875Q711.6699,184.1875,710.2988,183.3438Q708.9336,182.5,708.1543,180.918Q707.375,179.3359,707.375,177.2441ZM708.9922,177.25Q708.9922,178.8555,709.5195,180.0977Q710.0469,181.334,711.043,182.0254Q712.0449,182.7168,713.375,182.7168Q714.7109,182.7168,715.6953,182.0254Q716.6855,181.334,717.2188,180.0977Q717.7578,178.8555,717.7578,177.25Q717.7578,175.62695,717.2188,174.39062Q716.6855,173.14844,715.6953,172.46875Q714.7109,171.7832,713.375,171.7832Q712.0449,171.7832,711.0547,172.46875Q710.0703,173.14844,709.5312,174.39062Q708.9922,175.62695,708.9922,177.25ZM732.7578,170.5L734.1172,170.5L734.1172,184L732.5,184L732.5,173.71094L728.3633,180.5137L727.4141,180.5137L723.2422,173.66992L723.2422,184L721.625,184L721.625,170.5L723.0898,170.5L727.9355,178.5215L732.7578,170.5Z" fill="#FFFFFF" fill-opacity="1" style="mix-blend-mode:passthrough"/></g></g></g><g style="mix-blend-mode:passthrough"><g style="mix-blend-mode:passthrough"><rect x="145" y="0" width="560" height="65" rx="5" fill="#FDFA69" fill-opacity="1"/></g><g style="mix-blend-mode:passthrough"><path d="M385.4043,39.1875Q384.12695,39.1875,383.18359,38.584Q382.246094,37.9805,381.9414062,36.7207L383.48828,35.8301Q383.95703,37.4824,385.39844,37.4824Q386.37109,37.4824,386.81055,36.75Q387.25,36.0176,387.25,34.6055L387.25,25.5L389.19531,25.5L389.19531,34.7285Q389.19531,37.0547,388.12891,38.1211Q387.0625,39.1875,385.4043,39.1875ZM395.5586,29.4375Q397.2402,29.4375,398.2773,30.42773Q399.3203,31.41797,399.3203,33.2695L399.3203,39L397.5918,39Q397.5918,38.0566,397.5215,37.6523Q396.6719,39.1875,394.7793,39.1875Q393.8535,39.1875,393.0742,38.8301Q392.3008,38.4727,391.83789,37.7988Q391.375,37.1191,391.375,36.1523Q391.375,34.7051,392.5,33.8555Q393.625,33,395.3652,33Q396.3438,33,397.375,33.2871L397.375,33.2578Q397.375,32.168,396.8828,31.6582Q396.3906,31.142580000000002,395.4062,31.142580000000002Q394.6094,31.142580000000002,394.0762,31.43555Q393.543,31.722659999999998,393.1738,32.2734L391.7793,31.61719Q392.2305,30.62695,393.2441,30.035159999999998Q394.2578,29.4375,395.5586,29.4375ZM397.375,34.7695Q396.3203,34.5,395.5293,34.5Q394.4805,34.5,393.9004,34.9102Q393.3203,35.3203,393.3203,36.0586Q393.3203,36.7207,393.7949,37.1016Q394.2695,37.4824,395.0371,37.4824Q396.0039,37.4824,396.6895,36.9199Q397.375,36.3574,397.375,35.3555L397.375,34.7695ZM402.6074,29.625L405.3262,36.5801L407.8809,29.625L409.8086,29.625L405.9707,39L404.4766,39L400.5215,29.625L402.6074,29.625ZM415.0586,29.4375Q416.7402,29.4375,417.77729999999997,30.42773Q418.8203,31.41797,418.8203,33.2695L418.8203,39L417.0918,39Q417.0918,38.0566,417.0215,37.6523Q416.1719,39.1875,414.2793,39.1875Q413.3535,39.1875,412.5742,38.8301Q411.8008,38.4727,411.3379,37.7988Q410.875,37.1191,410.875,36.1523Q410.875,34.7051,412,33.8555Q413.125,33,414.8652,33Q415.8438,33,416.875,33.2871L416.875,33.2578Q416.875,32.168,416.3828,31.6582Q415.8906,31.142580000000002,414.9062,31.142580000000002Q414.1094,31.142580000000002,413.5762,31.43555Q413.043,31.722659999999998,412.6738,32.2734L411.2793,31.61719Q411.7305,30.62695,412.7441,30.035159999999998Q413.7578,29.4375,415.0586,29.4375ZM416.875,34.7695Q415.8203,34.5,415.0293,34.5Q413.9805,34.5,413.4004,34.9102Q412.8203,35.3203,412.8203,36.0586Q412.8203,36.7207,413.2949,37.1016Q413.7695,37.4824,414.5371,37.4824Q415.5039,37.4824,416.1895,36.9199Q416.875,36.3574,416.875,35.3555L416.875,34.7695ZM429.6953,35.1738Q429.6953,36.416,429.1152,37.3242Q428.53520000000003,38.226600000000005,427.5098,38.707Q426.4902,39.1875,425.16020000000003,39.1875Q423.291,39.1875,421.90229999999997,38.2969Q420.5137,37.4062,420.0684,35.9121L421.5918,34.9805Q422.0605,36.1758,422.9805,36.832Q423.9004,37.4824,425.2422,37.4824Q426.4316,37.4824,427.0879,36.9551Q427.75,36.4277,427.75,35.4844Q427.75,34.7227,427.3223,34.2305Q426.9004,33.7383,426.2734,33.4746Q425.6465,33.2051,424.5742,32.8711Q423.2676,32.4668,422.4941,32.1094Q421.7207,31.746090000000002,421.1699,31.03125Q420.625,30.31055,420.625,29.15039Q420.625,27.92578,421.2285,27.05273Q421.8379,26.17969,422.8574,25.74609Q423.8828,25.3125,425.1484,25.3125Q426.8945,25.3125,428.0137,26.08594Q429.1387,26.85938,429.5078,28.10156L428.0078,29.05664Q427.1934,27.01758,425.0605,27.01758Q423.9355,27.01758,423.25,27.52734Q422.5703,28.03711,422.5703,28.9043Q422.5703,29.55469,422.957,29.95898Q423.3438,30.36328,423.9238,30.61523Q424.5098,30.86719,425.5117,31.160159999999998Q426.84770000000003,31.57031,427.6797,31.96289Q428.5117,32.3496,429.1035,33.123Q429.6953,33.8965,429.6953,35.1738ZM435.3027,37.4824Q436.5625,37.4824,437.3184,36.3223L438.7422,37.1426Q438.2559,38.168,437.3652,38.6777Q436.4746,39.1875,435.3203,39.1875Q434.0605,39.1875,433.0176,38.5957Q431.9746,38.0039,431.3594,36.8965Q430.75,35.7891,430.75,34.3125Q430.75,32.8359,431.3594,31.73438Q431.9746,30.62695,433.0176,30.035159999999998Q434.0605,29.4375,435.3203,29.4375Q436.4746,29.4375,437.3652,29.94727Q438.2559,30.451169999999998,438.7422,31.464840000000002L437.3184,32.2852Q436.5625,31.142580000000002,435.3027,31.142580000000002Q434.1367,31.142580000000002,433.416,31.99219Q432.6953,32.8418,432.6953,34.3066Q432.6953,35.7832,433.416,36.6328Q434.1367,37.4824,435.3027,37.4824ZM444.4785,29.4375Q444.9473,29.4375,445.3516,29.56055Q445.7559,29.68359,445.9902,29.88867L445.293,31.39453Q444.877,31.142580000000002,444.373,31.142580000000002Q443.34770000000003,31.142580000000002,442.709,31.986330000000002Q442.0703,32.8301,442.0703,34.3945L442.0703,39L440.125,39L440.125,29.625L441.8711,29.625Q441.8711,30.52148,441.959,31.19531Q442.375,30.316409999999998,443.0137,29.87695Q443.65229999999997,29.4375,444.4785,29.4375ZM448.3574,28.125Q447.9062,28.125,447.5781,27.73242Q447.25,27.33984,447.25,26.80078Q447.25,26.26758,447.5781,25.88672Q447.9062,25.5,448.3574,25.5Q448.8438,25.5,449.1719,25.88672Q449.5,26.26758,449.5,26.80078Q449.5,27.33984,449.16020000000003,27.73242Q448.8262,28.125,448.3574,28.125ZM449.5,39L447.5547,39L447.5547,29.625L449.5,29.625L449.5,39ZM456.66020000000003,29.4375Q457.7324,29.4375,458.6699,30.02344Q459.6074,30.60352,460.1758,31.71094Q460.75,32.8184,460.75,34.3125Q460.75,35.8242,460.1758,36.9316Q459.6074,38.039100000000005,458.6699,38.613299999999995Q457.7324,39.1875,456.66020000000003,39.1875Q455.7637,39.1875,454.9785,38.789100000000005Q454.1934,38.3906,453.6953,37.5938L453.6953,43.125L451.75,43.125L451.75,29.625L453.4961,29.625Q453.4961,30.55664,453.584,31.21289Q454.082,30.32812,454.8965,29.88281Q455.7109,29.4375,456.66020000000003,29.4375ZM456.3203,37.4824Q457.457,37.4824,458.1309,36.6504Q458.8047,35.8184,458.8047,34.3184Q458.8047,32.8418,458.1191,31.99219Q457.4395,31.142580000000002,456.3203,31.142580000000002Q455.2363,31.142580000000002,454.4629,31.92773Q453.6953,32.7129,453.6953,34.3184Q453.6953,35.9473,454.4629,36.7148Q455.2363,37.4824,456.3203,37.4824ZM468.40229999999997,38.6074Q467.6172,39.1875,466.3281,39.1875Q465.0215,39.1875,464.1953,38.460899999999995Q463.375,37.7285,463.375,35.8652L463.375,31.330080000000002L461.875,31.330080000000002L461.875,29.625L463.375,29.625L463.375,26.625L465.3203,26.625L465.3203,29.625L467.875,29.625L467.875,31.330080000000002L465.3203,31.330080000000002L465.3203,35.584Q465.3203,37.4824,466.6562,37.4824Q467.2598,37.4824,467.7754,37.1484L468.40229999999997,38.6074Z" fill="#000000" fill-opacity="1" style="mix-blend-mode:passthrough"/></g></g></g></svg>